<svg width="48" height="48" viewBox="0 0 48 48" fill="none" xmlns="http://www.w3.org/2000/svg">
<rect width="48" height="48" rx="24" fill="#7866D5"/>
<path d="M21.7495 10.875C12.7495 10.875 8.99951 14.7203 8.99951 19.875V28.125C8.99951 33.2796 12.7495 37.125 21.7495 37.125H30.4683C38.6245 37.125 38.9995 36.1407 38.9995 34.5C38.9995 32.6251 38.2495 31.875 36.3745 31.875H21.7495C17.2495 31.875 14.9995 29.6301 14.9995 27.375V26.625H36.3745C37.8745 26.625 38.9995 25.6406 38.9995 24C38.9995 22.3594 37.8745 21.375 36.3745 21.375H14.9995V20.625C14.9995 18.3698 17.2495 16.125 21.7495 16.125H36.3745C38.2495 16.125 38.9995 15.3749 38.9995 13.5C38.9995 11.8593 38.6245 10.875 30.4683 10.875H21.7495Z" fill="white"/>
</svg>
