<svg width="48" height="48" viewBox="0 0 48 48" fill="none" xmlns="http://www.w3.org/2000/svg">
<rect width="48" height="48" rx="24" fill="black"/>
<path d="M40.7018 13.8438C40.1345 13.3965 39.4582 12.7856 38.2254 12.6329C37.0691 12.4801 35.8909 13.2547 35.0945 13.7674C34.2982 14.2801 32.7927 15.7856 32.1709 16.2438C31.5491 16.702 29.9563 17.1274 27.3927 18.6656C24.8291 20.2038 14.7709 26.662 14.7709 26.662L17.3891 26.6947L5.71634 32.7056H6.88361L5.20361 33.982C5.20361 33.982 6.68725 34.3747 7.93089 33.5892V33.9492C7.93089 33.9492 21.8291 28.4729 24.5127 29.8911L22.8763 30.3711C23.0182 30.3711 25.6582 30.5456 25.6582 30.5456C25.6582 30.5456 25.7454 32.1929 27.3382 33.2511C28.9309 34.2983 28.9636 34.8765 28.9636 34.8765C28.9636 34.8765 28.1345 35.2147 28.1345 35.6401C28.1345 35.6401 29.3563 35.2692 30.4909 35.302C31.6254 35.3347 32.6182 35.6401 32.6182 35.6401C32.6182 35.6401 32.5309 35.182 31.4291 34.8765C30.3163 34.5601 29.2363 33.3711 28.7018 32.7165C28.1673 32.062 27.7963 30.8947 28.2545 29.7274C28.6363 28.7347 29.9672 28.1892 32.7163 26.7711C35.9563 25.0911 36.6982 23.8474 37.1563 22.8765C37.6145 21.9056 38.2909 19.9747 38.6727 19.0692C39.1527 17.902 39.7418 17.2801 40.2327 16.9092C40.7127 16.5383 42.9054 15.7201 42.9054 15.7201C42.9054 15.7201 41.2363 14.2692 40.7018 13.8438Z" fill="white"/>
</svg>
