<svg width="48" height="48" viewBox="0 0 48 48" fill="none" xmlns="http://www.w3.org/2000/svg">
<rect width="48" height="48" rx="24" fill="#7214ED"/>
<path fill-rule="evenodd" clip-rule="evenodd" d="M34.2156 8.82684C34.2156 9.34332 34.077 9.82746 33.8352 10.2441C38.1704 13.3166 41 18.3737 41 24.0918C41 26.8598 40.3368 29.4732 39.1608 31.7812C40.2612 35.6928 39.5892 38.7264 37.363 40.753C35.019 42.8868 31.286 42.6724 27.464 41.1086C27.2466 41.0196 27.028 40.926 26.8084 40.8278C25.9072 40.9758 24.982 41.0528 24.039 41.0528C19.3744 41.0528 15.1496 39.1698 12.0833 36.1224C11.6035 36.3822 11.0541 36.5298 10.4702 36.5298C8.59672 36.5298 7.07798 35.011 7.07798 33.1376C7.07798 32.0746 7.56684 31.126 8.33196 30.504C7.52354 28.5258 7.07798 26.3608 7.07798 24.0918C7.07798 22.468 7.30612 20.8978 7.7321 19.4109C6.54386 15.4713 6.68582 11.7493 9.02342 9.62134C10.0949 8.64592 11.2643 7.99942 12.5628 7.76174C13.5252 7.5856 14.5179 7.64144 15.5446 7.91218C15.9593 7.43352 16.5716 7.13074 17.2546 7.13074C17.9341 7.13074 18.5436 7.43044 18.9582 7.90486C20.5622 7.40186 22.269 7.13074 24.039 7.13074C25.6758 7.13074 27.2586 7.3626 28.756 7.7953C29.1682 6.74424 30.1916 6 31.3888 6C32.95 6 34.2156 7.26562 34.2156 8.82684ZM13.8624 33.1376C13.8624 33.8114 13.6659 34.4392 13.3272 34.9672C16.075 37.674 19.8438 39.3472 24.0034 39.3566C21.1276 37.6316 18.1748 35.2066 15.4612 32.2256C12.5558 29.034 10.3105 25.629 8.86526 22.4136C8.805 22.9646 8.77408 23.5246 8.77408 24.0918C8.77408 26.1088 9.16532 28.0346 9.87608 29.7972C10.069 29.7632 10.2675 29.7454 10.4702 29.7454C12.3436 29.7454 13.8624 31.2642 13.8624 33.1376ZM32.5384 11.4101C36.6188 14.1502 39.3038 18.8074 39.3038 24.0918C39.3038 31.4978 34.0296 37.672 27.0324 39.0632C23.701 37.4786 20.0434 34.7396 16.7155 31.084C13.1738 27.1932 10.7009 23.028 9.5078 19.4026C10.6127 15.9761 12.8959 13.0788 15.8799 11.188C16.2609 11.4801 16.7375 11.6537 17.2546 11.6537C17.7324 11.6537 18.1756 11.5055 18.5407 11.2526C20.4218 12.5497 22.5836 14.5399 25.108 17.3128C25.4232 17.6592 25.9596 17.6844 26.306 17.3691C26.6522 17.0538 26.6774 16.5174 26.3622 16.1711C23.8132 13.371 21.5414 11.2561 19.4726 9.83556C19.4938 9.72918 19.5075 9.62012 19.5131 9.50894C20.9432 9.0656 22.4632 8.82684 24.039 8.82684C25.6466 8.82684 27.1964 9.07538 28.6516 9.53614C28.9664 10.7541 30.0726 11.6537 31.3888 11.6537C31.7982 11.6537 32.1872 11.5666 32.5384 11.4101ZM12.8682 9.43012C13.5188 9.31104 14.222 9.3332 14.9969 9.52282C15.0008 9.5915 15.0077 9.65936 15.0176 9.72626C12.3705 11.3922 10.2161 13.7695 8.82292 16.59C8.43538 13.9733 8.93272 11.9975 10.1652 10.8756C11.0556 10.065 11.9459 9.59894 12.8682 9.43012ZM37.8854 33.8896C35.8732 36.7282 33.0098 38.9212 29.667 40.0966C32.5894 40.9818 34.8728 40.7262 36.2212 39.4988C37.5594 38.2806 38.2612 36.4822 37.8854 33.8896Z" fill="white"/>
<path d="M13.0246 20.72V22.447H15.3991V28.6146H17.5116V22.447H19.8861V20.72H13.0246Z" fill="white"/>
<path d="M25.518 23.6806H27.692C27.651 23.1898 27.534 22.7542 27.3412 22.3738C27.1486 21.9934 26.894 21.6736 26.578 21.414C26.262 21.1518 25.8944 20.9526 25.4756 20.8164C25.0566 20.6802 24.598 20.6122 24.0994 20.6122C23.39 20.6122 22.7476 20.7676 22.172 21.0786C21.5964 21.387 21.139 21.8432 20.7996 22.447C20.4604 23.0484 20.2908 23.7884 20.2908 24.6674C20.2908 25.5412 20.4566 26.28 20.7882 26.8838C21.1222 27.4878 21.5758 27.9452 22.1488 28.2562C22.7246 28.5672 23.3746 28.7226 24.0994 28.7226C24.6776 28.7226 25.1852 28.634 25.622 28.4566C26.0588 28.2794 26.425 28.0454 26.7206 27.755C27.0188 27.462 27.2488 27.1434 27.4106 26.799C27.5726 26.4522 27.6664 26.1116 27.692 25.7776L25.518 25.7622C25.4922 25.9318 25.4422 26.0846 25.3676 26.2208C25.2956 26.3544 25.2018 26.4688 25.0862 26.564C24.9706 26.659 24.8344 26.7322 24.6776 26.7836C24.5208 26.8324 24.3436 26.8568 24.1456 26.8568C23.7988 26.8568 23.5018 26.776 23.2552 26.614C23.0084 26.4496 22.8196 26.2054 22.6886 25.8816C22.56 25.5552 22.4958 25.1506 22.4958 24.6674C22.4958 24.21 22.5588 23.818 22.6846 23.4916C22.8132 23.1654 23.0008 22.9148 23.2474 22.74C23.4968 22.5652 23.8012 22.4778 24.161 22.4778C24.3666 22.4778 24.5504 22.5074 24.7122 22.5666C24.8742 22.623 25.0116 22.7054 25.1248 22.8132C25.2404 22.9186 25.3304 23.0446 25.3946 23.191C25.4614 23.3374 25.5026 23.5006 25.518 23.6806Z" fill="white"/>
<path d="M33.7912 23.326C33.7578 23.1898 33.7052 23.0702 33.6332 22.9674C33.5612 22.862 33.4712 22.7734 33.3634 22.7014C33.258 22.627 33.1346 22.5716 32.9932 22.5356C32.8546 22.4972 32.7016 22.4778 32.5346 22.4778C32.1748 22.4778 31.8678 22.564 31.6132 22.7362C31.3614 22.9084 31.1688 23.1564 31.035 23.4802C30.904 23.804 30.8384 24.1946 30.8384 24.652C30.8384 25.1146 30.9014 25.5102 31.0274 25.8392C31.1532 26.1682 31.3408 26.42 31.5902 26.5948C31.8394 26.7696 32.1492 26.8568 32.5192 26.8568C32.8456 26.8568 33.1166 26.8094 33.3326 26.7142C33.551 26.6192 33.7142 26.4842 33.822 26.3096C33.924 26.1444 33.978 25.9516 33.9834 25.7314H32.55V24.2048H36.0502V25.2996C36.0502 26.0192 35.8972 26.6346 35.5914 27.146C35.2882 27.6548 34.8692 28.0454 34.3348 28.3178C33.8028 28.5876 33.1924 28.7226 32.5038 28.7226C31.7354 28.7226 31.0608 28.5594 30.48 28.233C29.8992 27.9066 29.4456 27.4416 29.1192 26.8376C28.7954 26.2338 28.6336 25.5154 28.6336 24.6828C28.6336 24.03 28.7324 23.4518 28.9304 22.9482C29.1308 22.4444 29.4084 22.0192 29.763 21.6722C30.1176 21.3228 30.5276 21.0594 30.9926 20.882C31.4578 20.7022 31.9564 20.6122 32.4884 20.6122C32.956 20.6122 33.3904 20.679 33.7912 20.8126C34.1948 20.9436 34.5506 21.1312 34.859 21.3754C35.17 21.617 35.4206 21.9036 35.6106 22.235C35.8008 22.5666 35.9166 22.9302 35.9576 23.326H33.7912Z" fill="white"/>
</svg>
