<svg xmlns="http://www.w3.org/2000/svg" width="375" height="430" fill="none"><path fill="#131313" d="M0 0h375v430H0z"/><rect width="134" height="5" x="120" y="417" fill="#fff" rx="2.5"/><path fill="#1C1A1B" d="M26 288h92a4 4 0 0 1 4 4v18c0 1.087-.431 2.121-1.182 2.837l-6.535 6.229A3.3 3.3 0 0 1 112 320H20a4 4 0 0 1-4-4v-18c0-1.087.43-2.121 1.182-2.837l6.535-6.229A3.3 3.3 0 0 1 26 288"/><path stroke="#fff" stroke-opacity=".04" d="M26 288.5h92a3.5 3.5 0 0 1 3.5 3.5v18c0 .958-.38 1.859-1.027 2.475l-6.535 6.229a2.8 2.8 0 0 1-1.938.796H20a3.5 3.5 0 0 1-3.5-3.5v-18c0-.958.38-1.859 1.027-2.475l6.535-6.229A2.8 2.8 0 0 1 26 288.5Z"/><path fill="#fff" d="M30.637 302.102q.643 0 .643-.643v-1.338q0-.427.21-.631.217-.21.618-.21h1.363q.65 0 .65-.637 0-.643-.65-.643h-1.458q-.988 0-1.503.51-.51.509-.51 1.484v1.465q0 .642.637.643m10.726 0q.637 0 .637-.643v-1.465q0-.975-.516-1.484-.51-.51-1.503-.51h-1.452q-.645 0-.644.643 0 .637.644.637h1.363q.4 0 .618.21.216.205.216.631v1.338q0 .642.637.643M32.013 310h1.458q.65 0 .65-.637t-.65-.637h-1.363q-.4 0-.618-.21-.21-.21-.21-.637v-1.331q0-.644-.643-.644-.637 0-.637.644v1.458q0 .981.51 1.484.515.51 1.503.51m6.516 0h1.452q.993 0 1.503-.51.516-.509.516-1.484v-1.458q0-.644-.637-.644t-.637.644v1.331q0 .427-.216.637-.217.21-.618.21h-1.363q-.645 0-.644.637 0 .637.644.637M32.667 304c0-.368.298-.667.666-.667h5.334a.667.667 0 0 1 0 1.334h-5.334a.667.667 0 0 1-.666-.667M52.032 308.728q-1.188 0-2.004-.372-.816-.384-1.236-1.032-.42-.66-.42-1.512h1.908q0 .336.18.624.192.288.576.468.384.168.996.168.552 0 .924-.144t.564-.396a1 1 0 0 0 .192-.6q0-.42-.36-.66-.36-.252-1.164-.324l-.66-.06q-1.308-.108-2.088-.816t-.78-1.872q0-.84.396-1.452.408-.612 1.128-.936.72-.336 1.704-.336 1.032 0 1.764.36.744.348 1.14.996.396.636.396 1.5h-1.92q0-.324-.156-.588a1.14 1.14 0 0 0-.468-.444q-.3-.168-.756-.168-.432 0-.732.144a1 1 0 0 0-.432.396q-.144.24-.144.528 0 .372.264.648t.864.324l.672.06q.96.084 1.692.42.732.324 1.14.9.42.564.42 1.38 0 .84-.444 1.476-.432.624-1.236.972t-1.92.348m8.16 0q-.852 0-1.488-.276a3.1 3.1 0 0 1-1.044-.768 3.2 3.2 0 0 1-.624-1.08 4 4 0 0 1-.204-1.26v-.228q0-.672.216-1.284.216-.624.636-1.104a2.95 2.95 0 0 1 1.044-.756q.636-.276 1.452-.276.888 0 1.572.348.684.336 1.092.948t.456 1.404h-1.884a1.18 1.18 0 0 0-.36-.744q-.3-.312-.876-.312-.48 0-.804.24-.312.24-.468.66t-.156.996q0 .528.144.96.144.42.456.66.324.228.84.228.384 0 .648-.132.276-.144.432-.384.168-.252.204-.576h1.872a2.74 2.74 0 0 1-.456 1.44q-.42.612-1.116.96-.696.336-1.584.336m8.716-.228v-1.944h-.324v-2.112q0-.504-.24-.756t-.768-.252q-.264 0-.696.012t-.888.036-.828.048v-1.62a30 30 0 0 1 1.416-.084q.396-.012.744-.012 1.008 0 1.692.288.696.288 1.056.876.36.576.36 1.488v4.032zm-2.1.168q-.708 0-1.248-.252a1.96 1.96 0 0 1-.828-.72q-.3-.48-.3-1.14 0-.72.372-1.176.372-.468 1.044-.684.672-.228 1.548-.228H68.8v1.068h-1.416q-.504 0-.78.252-.264.24-.264.66 0 .396.264.648.276.24.78.24.324 0 .576-.108a.98.98 0 0 0 .432-.396q.168-.276.192-.768l.456.48q-.06.684-.336 1.152a1.8 1.8 0 0 1-.744.72q-.468.252-1.152.252m5.613-.168v-6.576h1.524v2.82h-.108q0-1.008.252-1.68.264-.672.792-1.008t1.284-.336h.084q1.152 0 1.752.756.612.744.612 2.268v3.756h-1.92v-3.864q0-.528-.312-.864t-.84-.336q-.54 0-.876.348-.324.336-.324.888v3.828zm17.091 2.616q-.816 0-1.415-.192a1.72 1.72 0 0 1-.924-.696q-.324-.504-.325-1.44v-1.344h1.837v1.428q0 .348.191.528.204.192.552.192h1.309v1.524zm-1.716-2.388q-1.188 0-2.076-.408a4.4 4.4 0 0 1-1.451-1.092 4.9 4.9 0 0 1-.865-1.476 4.6 4.6 0 0 1-.275-1.524v-.264q0-.816.287-1.608.3-.804.889-1.452.588-.648 1.463-1.032.877-.396 2.028-.396t2.028.396q.877.384 1.465 1.032.587.648.888 1.452.3.792.3 1.608v.264q0 .732-.288 1.524a4.9 4.9 0 0 1-.864 1.476 4.3 4.3 0 0 1-1.465 1.092q-.876.408-2.064.408m0-1.836a2.75 2.75 0 0 0 1.116-.216q.505-.216.852-.6.36-.384.54-.888t.18-1.08q0-.612-.191-1.116a2.4 2.4 0 0 0-.54-.888 2.3 2.3 0 0 0-.84-.588 2.9 2.9 0 0 0-1.117-.204q-.624 0-1.116.204a2.4 2.4 0 0 0-.852.588 2.5 2.5 0 0 0-.528.888q-.18.504-.18 1.116 0 .576.18 1.08t.529.888q.36.384.852.6t1.115.216m6.532 1.608v-8.832h1.968v8.832zm5.316 0-2.568-3.768h2.16l2.688 3.768zm-3.876-2.808v-1.548h2.16q.432 0 .744-.168.324-.18.492-.492.18-.324.18-.744t-.18-.732a1.13 1.13 0 0 0-.492-.492 1.46 1.46 0 0 0-.744-.18h-2.16v-1.668h2.004q1.092 0 1.896.336.804.324 1.236.972t.432 1.632v.192q0 .972-.444 1.62-.432.636-1.236.96-.792.312-1.884.312z"/><path fill="#1C1A1B" d="M144 288h88a4 4 0 0 1 4 4v18c0 1.087-.431 2.121-1.182 2.837l-6.535 6.229A3.3 3.3 0 0 1 226 320h-88a4 4 0 0 1-4-4v-18c0-1.087.431-2.121 1.182-2.837l6.535-6.229A3.3 3.3 0 0 1 144 288"/><path stroke="#fff" stroke-opacity=".04" d="M144 288.5h88a3.5 3.5 0 0 1 3.5 3.5v18c0 .958-.38 1.859-1.027 2.475l-6.535 6.229a2.8 2.8 0 0 1-1.938.796h-88a3.5 3.5 0 0 1-3.5-3.5v-18c0-.958.38-1.859 1.027-2.475l6.535-6.229A2.8 2.8 0 0 1 144 288.5Z"/><path fill="#fff" fill-rule="evenodd" d="m149.232 300.358-.912-.912a.2.2 0 0 0-.096-.052.19.19 0 0 0-.193.08.2.2 0 0 0-.031.105v2.734c0 .103.084.187.187.187h2.735a.188.188 0 0 0 .133-.32l-1.019-1.018a4.87 4.87 0 0 1 6.04-1.573 4.87 4.87 0 0 1 2.636 5.658 4.875 4.875 0 0 1-9.561-.742.56.56 0 0 0-.617-.502.563.563 0 0 0-.503.617 6 6 0 1 0 1.201-4.262m4.58.642a.567.567 0 0 1 .563.563v2.244l1.52.608a.563.563 0 0 1-.417 1.044l-1.875-.75a.56.56 0 0 1-.353-.521v-2.625a.566.566 0 0 1 .562-.563" clip-rule="evenodd"/><path fill="#fff" d="M172.648 308.5v-8.76h1.968v8.76zm-5.664 0v-8.76h1.968v8.76zm1.62-3.54v-1.728h4.392v1.728zm8.542 3.54v-6.576h1.92v6.576zm-.876-5.16v-1.416h2.796v1.416zm1.62-2.064q-.54 0-.804-.276a1.05 1.05 0 0 1-.252-.72q0-.444.252-.72.264-.288.804-.288t.792.288q.264.276.264.72 0 .432-.264.72-.252.276-.792.276m5.807 7.428q-1.404 0-2.196-.576t-.84-1.62h1.704q.048.312.372.564.336.24.996.24.504 0 .828-.168.336-.18.336-.504a.52.52 0 0 0-.252-.456q-.252-.18-.9-.252l-.516-.048q-1.188-.12-1.788-.66-.588-.54-.588-1.38 0-.696.348-1.164t.96-.708q.624-.24 1.416-.24 1.272 0 2.052.564.78.552.816 1.608h-1.704a.8.8 0 0 0-.336-.54q-.288-.228-.852-.228-.444 0-.708.168a.52.52 0 0 0-.264.456q0 .276.228.42t.744.204l.516.048q1.212.132 1.884.672t.672 1.452q0 .66-.36 1.152-.36.48-1.02.744-.66.252-1.548.252m7.52-.12q-.996 0-1.608-.24a1.7 1.7 0 0 1-.9-.828q-.276-.588-.276-1.584v-5.784h1.788v5.856q0 .468.24.72.252.24.708.24h.972v1.62zm-3.78-5.256v-1.404h4.704v1.404zm9.536 5.4q-.864 0-1.536-.264a3.4 3.4 0 0 1-1.14-.744 3.2 3.2 0 0 1-.696-1.068 3.5 3.5 0 0 1-.24-1.284v-.276q0-.684.24-1.296.252-.624.72-1.092.48-.468 1.152-.732a3.9 3.9 0 0 1 1.5-.276q.852 0 1.512.276.672.264 1.14.732t.72 1.092q.252.612.252 1.296v.276q0 .672-.24 1.284-.24.6-.708 1.068-.456.468-1.128.744-.672.264-1.548.264m0-1.62q.564 0 .936-.24t.564-.672a2.2 2.2 0 0 0 .204-.96q0-.564-.204-.984a1.63 1.63 0 0 0-.588-.684q-.372-.252-.912-.252-.528 0-.912.252a1.63 1.63 0 0 0-.588.684q-.192.42-.192.984 0 .528.192.96t.576.672.924.24m5.324 1.392v-6.576h1.524v2.82h-.036q0-1.392.588-2.148.6-.756 1.728-.756h.252v1.656h-.48q-.792 0-1.224.432-.432.42-.432 1.224v3.348zm5.538 2.604v-1.632h1.368q.312 0 .528-.084a.7.7 0 0 0 .348-.252q.132-.18.216-.492l1.62-6.72h1.824l-1.836 7.104q-.192.768-.54 1.224a1.8 1.8 0 0 1-.912.648q-.564.204-1.44.204zm2.064-2.748v-1.5h1.392v1.5zm-.792 0-2.016-6.432h1.932l1.908 6.432z"/><path fill="#1C1A1B" d="M258 288h71a4 4 0 0 1 4 4v18c0 1.087-.431 2.121-1.182 2.837l-6.535 6.229A3.3 3.3 0 0 1 323 320h-71a4 4 0 0 1-4-4v-18c0-1.087.431-2.121 1.182-2.837l6.535-6.229A3.3 3.3 0 0 1 258 288"/><path stroke="#fff" stroke-opacity=".04" d="M258 288.5h71a3.5 3.5 0 0 1 3.5 3.5v18c0 .958-.38 1.859-1.027 2.475l-6.535 6.229a2.8 2.8 0 0 1-1.938.796h-71a3.5 3.5 0 0 1-3.5-3.5v-18c0-.958.38-1.859 1.027-2.475l6.535-6.229A2.8 2.8 0 0 1 258 288.5Z"/><path stroke="#fff" stroke-linecap="round" stroke-linejoin="round" d="M270.667 306.666H272a1.333 1.333 0 0 0 1.334-1.333v-5.334a1.333 1.333 0 0 0-1.334-1.333h-5.333a1.33 1.33 0 0 0-1.333 1.333v1.334m5.333 1.333v5.333c0 .737-.597 1.334-1.333 1.334H264a1.333 1.333 0 0 1-1.333-1.334v-5.333c0-.736.597-1.333 1.333-1.333h5.334c.736 0 1.333.597 1.333 1.333"/><path fill="#fff" d="M282.712 305.992v-1.704h1.572q.456 0 .78-.18.336-.18.516-.504a1.6 1.6 0 0 0 .18-.768q0-.456-.18-.78a1.16 1.16 0 0 0-.516-.504 1.6 1.6 0 0 0-.78-.18h-1.572v-1.704h1.476q1.116 0 1.908.372.804.372 1.224 1.056.432.684.432 1.644v.192q0 .936-.432 1.632-.42.684-1.224 1.056-.792.372-1.908.372zm-1.728 2.508v-8.832h1.968v8.832zm12.146 0v-1.944h-.324v-2.112q0-.504-.24-.756t-.768-.252q-.264 0-.696.012t-.888.036-.828.048v-1.62a30 30 0 0 1 1.416-.084q.396-.012.744-.012 1.008 0 1.692.288.696.288 1.056.876.36.576.36 1.488v4.032zm-2.1.168q-.708 0-1.248-.252a1.96 1.96 0 0 1-.828-.72q-.3-.48-.3-1.14 0-.72.372-1.176.372-.468 1.044-.684.672-.228 1.548-.228h1.404v1.068h-1.416q-.504 0-.78.252-.264.24-.264.66 0 .396.264.648.276.24.78.24.324 0 .576-.108a.98.98 0 0 0 .432-.396q.168-.276.192-.768l.456.48q-.06.684-.336 1.152a1.8 1.8 0 0 1-.744.72q-.468.252-1.152.252m8.109.036q-1.404 0-2.196-.576t-.84-1.62h1.704q.048.312.372.564.336.24.996.24.504 0 .828-.168.336-.18.336-.504a.52.52 0 0 0-.252-.456q-.252-.18-.9-.252l-.516-.048q-1.188-.12-1.788-.66-.588-.54-.588-1.38 0-.696.348-1.164t.96-.708q.624-.24 1.416-.24 1.272 0 2.052.564.78.552.816 1.608h-1.704a.8.8 0 0 0-.336-.54q-.288-.228-.852-.228-.444 0-.708.168a.52.52 0 0 0-.264.456q0 .276.228.42t.744.204l.516.048q1.212.132 1.884.672t.672 1.452q0 .66-.36 1.152-.36.48-1.02.744-.66.252-1.548.252m7.52-.12q-.996 0-1.608-.24a1.7 1.7 0 0 1-.9-.828q-.276-.588-.276-1.584v-5.784h1.788v5.856q0 .468.24.72.252.24.708.24h.972v1.62zm-3.78-5.256v-1.404h4.704v1.404zm9.344 5.4q-.84 0-1.488-.288a3.2 3.2 0 0 1-1.068-.768 3.7 3.7 0 0 1-.648-1.092 3.7 3.7 0 0 1-.216-1.248v-.24q0-.66.216-1.26.228-.612.648-1.092a2.95 2.95 0 0 1 1.044-.756 3.45 3.45 0 0 1 1.44-.288q1.056 0 1.776.48.732.468 1.116 1.236.384.756.384 1.656v.648h-5.82v-1.092h4.656l-.624.504q0-.588-.168-1.008a1.3 1.3 0 0 0-.504-.636q-.324-.228-.816-.228-.504 0-.852.228a1.4 1.4 0 0 0-.528.672q-.18.432-.18 1.068 0 .588.168 1.032.168.432.528.672t.936.24q.528 0 .864-.204t.456-.504h1.764q-.144.66-.564 1.176a2.86 2.86 0 0 1-1.056.804q-.636.288-1.464.288"/><path fill="#fff" fill-opacity=".08" d="M28 332h323a8 8 0 0 1 8 8v28c0 1.304-.517 2.545-1.419 3.405l-7.841 7.474A3.97 3.97 0 0 1 347 380H24a8 8 0 0 1-8-8v-28c0-1.304.517-2.545 1.419-3.405l7.841-7.474A3.97 3.97 0 0 1 28 332"/><path fill="#fff" d="M156.102 361.304q-1.584 0-2.72-.544-1.137-.56-1.856-1.456a6.5 6.5 0 0 1-1.072-1.952 6.7 6.7 0 0 1-.336-2.048v-.352q0-1.088.352-2.144a5.8 5.8 0 0 1 1.072-1.936 5.3 5.3 0 0 1 1.84-1.376q1.119-.528 2.64-.528 1.584 0 2.8.592t1.936 1.648q.735 1.04.864 2.448h-2.64a2.5 2.5 0 0 0-.512-1.2 2.6 2.6 0 0 0-1.04-.768 3.5 3.5 0 0 0-1.408-.272q-.784 0-1.392.272a2.8 2.8 0 0 0-1.024.768 3.7 3.7 0 0 0-.624 1.184 5 5 0 0 0-.208 1.504q0 .816.208 1.504.223.672.64 1.184.432.497 1.056.768.623.256 1.424.256 1.215 0 2.048-.592a2.4 2.4 0 0 0 1.024-1.632h2.624a5.2 5.2 0 0 1-.864 2.352q-.705 1.056-1.936 1.696-1.216.624-2.896.624m11.565 0q-1.152 0-2.048-.352a4.6 4.6 0 0 1-1.52-.992 4.3 4.3 0 0 1-.928-1.424 4.6 4.6 0 0 1-.32-1.712v-.368q0-.912.32-1.728.336-.832.96-1.456a4.55 4.55 0 0 1 1.536-.976q.896-.368 2-.368 1.136 0 2.016.368.896.352 1.52.976t.96 1.456q.336.816.336 1.728v.368q0 .896-.32 1.712a4.2 4.2 0 0 1-.944 1.424 4.4 4.4 0 0 1-1.504.992q-.897.352-2.064.352m0-2.16q.751 0 1.248-.32.495-.32.752-.896.272-.576.272-1.28 0-.752-.272-1.312a2.2 2.2 0 0 0-.784-.912q-.496-.336-1.216-.336-.705 0-1.216.336a2.17 2.17 0 0 0-.784.912q-.256.56-.256 1.312 0 .704.256 1.28.255.576.768.896.512.32 1.232.32m6.618 1.856v-8.768h2.032v3.76h-.144q0-1.344.336-2.24.352-.895 1.056-1.344.704-.448 1.712-.448h.112q1.536 0 2.336 1.008.816.992.816 3.024V361h-2.56v-5.152q0-.703-.416-1.152-.415-.448-1.12-.448-.72 0-1.168.464-.432.448-.432 1.184V361zm14.422.112q-1.328 0-2.144-.32a2.25 2.25 0 0 1-1.2-1.104q-.368-.784-.368-2.112v-7.712h2.384v7.808q0 .624.32.96.335.32.944.32h1.296v2.16zm-5.04-7.008v-1.872h6.272v1.872zm8.409 6.896v-8.768h2.56V361zm-1.168-6.88v-1.888h3.728v1.888zm2.16-2.752q-.72 0-1.072-.368-.336-.384-.336-.96 0-.592.336-.96.352-.384 1.072-.384t1.056.384q.352.368.352.96 0 .576-.352.96-.336.368-1.056.368m3.936 9.632v-8.768h2.032v3.76h-.144q0-1.344.336-2.24.353-.895 1.056-1.344.704-.448 1.712-.448h.112q1.536 0 2.336 1.008.816.992.816 3.024V361h-2.56v-5.152q0-.703-.416-1.152t-1.12-.448q-.72 0-1.168.464-.432.448-.432 1.184V361zm13.397.272q-1.52 0-2.336-.976-.816-.992-.816-2.976v-5.088h2.56v5.216q0 .704.4 1.12t1.072.416q.688 0 1.12-.432t.432-1.168v-5.152h2.56V361h-2.032v-3.696h.176q0 1.328-.352 2.224-.336.88-1.008 1.312t-1.664.432zm11.369.032q-1.12 0-1.984-.384a4.2 4.2 0 0 1-1.424-1.024 4.9 4.9 0 0 1-.864-1.456 5 5 0 0 1-.288-1.664v-.32q0-.88.288-1.68a4.7 4.7 0 0 1 .864-1.456 3.9 3.9 0 0 1 1.392-1.008q.847-.384 1.92-.384 1.408 0 2.368.64a4.1 4.1 0 0 1 1.488 1.648q.512 1.008.512 2.208v.864h-7.76v-1.456h6.208l-.832.672q0-.784-.224-1.344-.223-.56-.672-.848-.432-.304-1.088-.304-.672 0-1.136.304t-.704.896q-.24.576-.24 1.424 0 .784.224 1.376.224.576.704.896t1.248.32q.703 0 1.152-.272.448-.271.608-.672h2.352a3.7 3.7 0 0 1-.752 1.568 3.8 3.8 0 0 1-1.408 1.072q-.848.384-1.952.384"/><path fill="#1C1A1B" stroke="#FF3B30" stroke-width=".5" d="M28 89.25h323a7.75 7.75 0 0 1 7.75 7.75v167c0 1.24-.492 2.414-1.341 3.224l-7.842 7.474A3.72 3.72 0 0 1 347 275.75H24a7.75 7.75 0 0 1-7.75-7.75V101c0-1.24.492-2.414 1.341-3.224l7.842-7.474A3.72 3.72 0 0 1 28 89.25Z"/><path fill="#FF3B30" d="M32.554 122h14.892q.764 0 1.337-.343.584-.343.895-.911.322-.559.322-1.235 0-.314-.09-.617a2.4 2.4 0 0 0-.252-.608l-7.46-13.002a2.4 2.4 0 0 0-.966-.961 2.5 2.5 0 0 0-1.237-.323q-.634 0-1.237.323a2.4 2.4 0 0 0-.965.961l-7.451 13.012a2.4 2.4 0 0 0-.342 1.215q0 .676.312 1.235.32.568.895.911.583.343 1.347.343m7.461-6.565q-1.005 0-1.046-.98l-.15-4.164q-.02-.5.311-.814.332-.313.875-.313t.875.323a.98.98 0 0 1 .322.804l-.161 4.144q-.04 1-1.026 1m0 3.312q-.553 0-.935-.314a1.05 1.05 0 0 1-.372-.833q0-.509.372-.832.382-.324.935-.324t.925.324q.372.323.372.832 0 .51-.382.833a1.37 1.37 0 0 1-.915.314M66.814 118l-2.52-10.22h2.366l1.974 8.68-.49-.322h1.274l-.546.322 1.526-8.302h1.904L70.3 118zm6.09 0-2.156-9.842h2.002l1.764 8.302-.532-.322H75.2l-.462.322 1.722-8.68h2.24L76.46 118zm11.852 0v-2.268h-.378v-2.464q0-.588-.28-.882t-.896-.294q-.308 0-.812.014-.504.013-1.036.042-.531.028-.966.056v-1.89q.323-.028.756-.056.434-.029.896-.042.463-.014.868-.014 1.176 0 1.974.336.813.336 1.232 1.022.42.672.42 1.736V118zm-2.45.196q-.826 0-1.456-.294a2.3 2.3 0 0 1-.966-.84q-.35-.56-.35-1.33 0-.84.434-1.372.435-.546 1.218-.798.784-.266 1.806-.266h1.638v1.246h-1.652q-.588 0-.91.294-.308.28-.308.77 0 .462.308.756.322.28.91.28.378 0 .672-.126.309-.14.504-.462.197-.322.224-.896l.532.56q-.07.798-.392 1.344a2.1 2.1 0 0 1-.868.84q-.546.294-1.344.294m6.409-.196v-7.672h1.778v3.29h-.042q0-1.624.686-2.506.699-.882 2.016-.882h.294v1.932h-.56q-.924 0-1.428.504-.504.49-.504 1.428V118zm6.172 0v-7.672h1.778v3.29h-.126q0-1.176.294-1.96.309-.784.924-1.176.616-.392 1.498-.392h.098q1.345 0 2.044.882.714.868.714 2.646V118h-2.24v-4.508q.001-.617-.364-1.008-.363-.392-.98-.392-.63 0-1.022.406-.378.392-.378 1.036V118zm9.777 0v-7.672h2.24V118zm-1.022-6.02v-1.652h3.262v1.652zm1.89-2.408q-.63 0-.938-.322-.294-.336-.294-.84 0-.517.294-.84.309-.336.938-.336.63 0 .924.336.308.323.308.84 0 .504-.308.84-.294.322-.924.322m3.724 8.428v-7.672h1.778v3.29h-.126q0-1.176.294-1.96.308-.784.924-1.176t1.498-.392h.098q1.344 0 2.044.882.714.868.714 2.646V118h-2.24v-4.508q0-.617-.364-1.008-.364-.392-.98-.392-.63 0-1.022.406-.378.392-.378 1.036V118zm12.437 3.052q-.56 0-1.148-.042a15 15 0 0 1-1.078-.112v-1.89a15 15 0 0 0 1.078.112q.601.056 1.092.056.909 0 1.47-.21.573-.21.84-.644.266-.42.266-1.092v-1.526l.406-.896q-.028 1.022-.406 1.75a2.65 2.65 0 0 1-1.022 1.12q-.659.378-1.568.378-.784 0-1.428-.28a3.2 3.2 0 0 1-1.078-.812 3.6 3.6 0 0 1-.686-1.204 4.7 4.7 0 0 1-.238-1.512v-.322q0-.811.252-1.512.251-.7.728-1.218a3.25 3.25 0 0 1 1.134-.798 3.5 3.5 0 0 1 1.456-.294q.924 0 1.596.406.685.406 1.078 1.19.391.784.42 1.89l-.308.084v-3.346h1.778v6.762q0 1.414-.504 2.282t-1.54 1.274q-1.023.406-2.59.406m.63-4.886q.518 0 .938-.224.42-.239.658-.672.252-.433.252-1.05v-.406q0-.601-.266-1.008a1.6 1.6 0 0 0-.672-.63 1.9 1.9 0 0 0-.896-.224q-.56 0-.994.266-.435.266-.672.742t-.238 1.12q0 .658.238 1.134.252.462.672.714a2 2 0 0 0 .98.238"/><path fill="#fff" d="m339.707 110.707 3.586 3.586c.63.63.184 1.707-.707 1.707h-7.172c-.891 0-1.337-1.077-.707-1.707l3.586-3.586a1 1 0 0 1 1.414 0M31.472 151v-9.268h1.372V151zm-3.108-8.988v-1.232h7.588v1.232zM37.461 151v-10.22h1.343v6.104h-.336q0-1.106.28-1.904.295-.812.897-1.246.6-.434 1.54-.434h.055q1.344 0 2.03.896.686.882.686 2.534V151h-1.344v-4.55q0-.91-.518-1.414-.504-.504-1.315-.504-.897 0-1.443.602-.531.588-.532 1.554V151zm9.179 0v-7.476h1.344V151zm-1.148-6.412v-1.064h2.492v1.064zm1.526-2.268q-.45 0-.672-.238a.88.88 0 0 1-.21-.602q0-.364.21-.602.224-.238.672-.238t.658.238q.224.238.224.602a.84.84 0 0 1-.224.602q-.21.238-.658.238m5.874 8.904q-1.47 0-2.282-.63-.798-.63-.826-1.722h1.26q.029.434.434.826.42.378 1.414.378.897 0 1.372-.35.476-.364.476-.882 0-.462-.35-.714-.35-.266-1.134-.35l-.812-.084q-1.064-.112-1.736-.63-.672-.532-.672-1.484 0-.714.364-1.218a2.24 2.24 0 0 1 1.008-.784q.645-.28 1.484-.28 1.26 0 2.044.56.785.56.812 1.666h-1.26q-.015-.448-.42-.756-.392-.322-1.176-.322t-1.19.322-.406.812q0 .42.28.672.294.252.952.322l.812.084q1.204.126 1.932.672.728.532.728 1.512 0 .7-.406 1.246-.392.532-1.092.84-.7.294-1.61.294M65.376 151v-2.24h-.224v-2.59q0-.77-.406-1.162-.393-.392-1.162-.392-.434 0-.896.014l-.882.028q-.42.013-.728.042v-1.176q.308-.028.644-.042a9 9 0 0 1 .714-.028q.364-.014.7-.014 1.147 0 1.876.28.727.266 1.078.882.35.616.35 1.666V151zm-2.45.196q-.84 0-1.456-.28a2.2 2.2 0 0 1-.938-.84q-.322-.546-.322-1.316 0-.798.35-1.33.363-.532 1.05-.798.686-.28 1.652-.28h2.03v1.008h-2.086q-.813 0-1.246.392t-.434 1.008q0 .616.434.994.433.378 1.246.378.475 0 .91-.168.433-.182.714-.588.294-.42.322-1.148l.364.532q-.07.798-.392 1.344a2.03 2.03 0 0 1-.868.812q-.546.28-1.33.28m8.962.056a3.6 3.6 0 0 1-1.47-.294 3.6 3.6 0 0 1-1.176-.826 4 4 0 0 1-.77-1.232 4.2 4.2 0 0 1-.266-1.512v-.252q0-.798.266-1.498a3.9 3.9 0 0 1 .742-1.232q.49-.532 1.148-.826a3.5 3.5 0 0 1 1.484-.308q.855 0 1.554.364.7.35 1.148 1.106.449.756.504 1.96l-.56-.896v-5.026h1.344V151h-1.064v-3.318h.392q-.055 1.274-.532 2.072-.475.784-1.204 1.148-.714.35-1.54.35m.182-1.176q.687 0 1.246-.308.56-.308.896-.882.336-.588.336-1.372v-.644q0-.77-.35-1.302a2.16 2.16 0 0 0-.91-.826 2.6 2.6 0 0 0-1.232-.294 2.5 2.5 0 0 0-1.316.35q-.56.35-.882.98-.308.63-.308 1.484t.322 1.498q.323.63.896.98.574.336 1.302.336m9.33 1.176a3.6 3.6 0 0 1-1.47-.294 3.6 3.6 0 0 1-1.175-.826 4 4 0 0 1-.77-1.232 4.2 4.2 0 0 1-.266-1.512v-.252q0-.798.266-1.498.265-.7.742-1.232.49-.532 1.148-.826a3.5 3.5 0 0 1 1.484-.308q.853 0 1.554.364.7.35 1.148 1.106t.504 1.96l-.56-.896v-5.026h1.344V151h-1.064v-3.318h.392q-.057 1.274-.532 2.072-.477.784-1.204 1.148-.714.35-1.54.35m.183-1.176q.685 0 1.246-.308t.896-.882q.336-.588.336-1.372v-.644q0-.77-.35-1.302a2.16 2.16 0 0 0-.91-.826 2.6 2.6 0 0 0-1.232-.294 2.5 2.5 0 0 0-1.316.35 2.43 2.43 0 0 0-.882.98q-.309.63-.308 1.484 0 .854.322 1.498.321.63.896.98a2.53 2.53 0 0 0 1.302.336m6.208.924v-7.476h1.064v3.08h-.056q0-1.638.714-2.394.728-.77 2.17-.77h.252v1.204h-.476q-1.12 0-1.722.602-.602.588-.602 1.708V151zm8.698.252q-.98 0-1.694-.336a3.3 3.3 0 0 1-1.162-.882 3.9 3.9 0 0 1-.672-1.246 4.8 4.8 0 0 1-.21-1.4v-.252q0-.728.21-1.414a3.8 3.8 0 0 1 .672-1.232 3.14 3.14 0 0 1 1.134-.882q.7-.336 1.638-.336 1.219 0 2.002.532.798.518 1.176 1.344.392.826.392 1.764v.602H93.34v-1.008h5.656l-.308.546q0-.798-.252-1.372a1.97 1.97 0 0 0-.756-.91q-.504-.322-1.274-.322-.798 0-1.33.364a2.26 2.26 0 0 0-.784.994q-.252.63-.252 1.456 0 .798.252 1.442.266.63.812 1.008.546.364 1.386.364.882 0 1.428-.392.56-.392.672-.91h1.26a2.97 2.97 0 0 1-.616 1.33 3 3 0 0 1-1.162.854q-.7.294-1.582.294m7.704-.028q-1.47 0-2.282-.63-.798-.63-.826-1.722h1.26q.029.434.434.826.42.378 1.414.378.897 0 1.372-.35.477-.364.476-.882 0-.462-.35-.714-.35-.266-1.134-.35l-.812-.084q-1.064-.112-1.736-.63-.672-.532-.672-1.484 0-.714.364-1.218a2.25 2.25 0 0 1 1.008-.784q.645-.28 1.484-.28 1.26 0 2.044.56.785.56.812 1.666h-1.26q-.013-.448-.42-.756-.392-.322-1.176-.322t-1.19.322-.406.812q0 .42.28.672.294.252.952.322l.812.084q1.204.126 1.932.672.729.532.728 1.512 0 .7-.406 1.246-.391.532-1.092.84-.7.294-1.61.294m7.366 0q-1.47 0-2.282-.63-.798-.63-.826-1.722h1.26q.029.434.434.826.42.378 1.414.378.897 0 1.372-.35.477-.364.476-.882 0-.462-.35-.714-.35-.266-1.134-.35l-.812-.084q-1.064-.112-1.736-.63-.672-.532-.672-1.484 0-.714.364-1.218a2.25 2.25 0 0 1 1.008-.784q.645-.28 1.484-.28 1.26 0 2.044.56.785.56.812 1.666h-1.26q-.013-.448-.42-.756-.391-.322-1.176-.322-.783 0-1.19.322-.405.322-.406.812 0 .42.28.672.294.252.952.322l.812.084q1.204.126 1.932.672.728.532.728 1.512 0 .7-.406 1.246-.391.532-1.092.84-.7.294-1.61.294m8.326-.224v-7.476h1.344V151zm-1.148-6.412v-1.064h2.492v1.064zm1.526-2.268q-.448 0-.672-.238a.88.88 0 0 1-.21-.602q0-.364.21-.602.224-.238.672-.238.447 0 .658.238a.85.85 0 0 1 .224.602.85.85 0 0 1-.224.602q-.21.238-.658.238m5.874 8.904q-1.47 0-2.282-.63-.798-.63-.826-1.722h1.26q.029.434.434.826.42.378 1.414.378.897 0 1.372-.35.476-.364.476-.882 0-.462-.35-.714-.35-.266-1.134-.35l-.812-.084q-1.064-.112-1.736-.63-.672-.532-.672-1.484 0-.714.364-1.218a2.25 2.25 0 0 1 1.008-.784q.645-.28 1.484-.28 1.26 0 2.044.56.785.56.812 1.666h-1.26q-.013-.448-.42-.756-.391-.322-1.176-.322-.783 0-1.19.322t-.406.812q0 .42.28.672.294.252.952.322l.812.084q1.204.126 1.932.672.728.532.728 1.512 0 .7-.406 1.246-.392.532-1.092.84-.7.294-1.61.294m12.484-.224v-2.24h-.224v-2.59q0-.77-.406-1.162-.393-.392-1.162-.392-.434 0-.896.014l-.882.028q-.42.013-.728.042v-1.176q.308-.028.644-.042.35-.028.714-.028.363-.014.7-.014 1.147 0 1.876.28.727.266 1.078.882.35.616.35 1.666V151zm-2.45.196q-.84 0-1.456-.28a2.2 2.2 0 0 1-.938-.84q-.322-.546-.322-1.316 0-.798.35-1.33.363-.532 1.05-.798.686-.28 1.652-.28h2.03v1.008h-2.086q-.813 0-1.246.392t-.434 1.008q0 .616.434.994.433.378 1.246.378.475 0 .91-.168.433-.182.714-.588.294-.42.322-1.148l.364.532q-.07.798-.392 1.344a2.03 2.03 0 0 1-.868.812q-.547.28-1.33.28m8.291.028q-1.47 0-2.282-.63-.798-.63-.826-1.722h1.26q.027.434.434.826.42.378 1.414.378.895 0 1.372-.35.476-.364.476-.882 0-.462-.35-.714-.351-.266-1.134-.35l-.812-.084q-1.065-.112-1.736-.63-.672-.532-.672-1.484 0-.714.364-1.218a2.24 2.24 0 0 1 1.008-.784q.644-.28 1.484-.28 1.26 0 2.044.56.783.56.812 1.666h-1.26q-.015-.448-.42-.756-.393-.322-1.176-.322-.785 0-1.19.322-.406.322-.406.812 0 .42.28.672.294.252.952.322l.812.084q1.203.126 1.932.672.728.532.728 1.512 0 .7-.406 1.246-.393.532-1.092.84-.7.294-1.61.294m7.365 0q-1.47 0-2.282-.63-.798-.63-.826-1.722h1.26q.029.434.434.826.42.378 1.414.378.897 0 1.372-.35.476-.364.476-.882 0-.462-.35-.714-.35-.266-1.134-.35l-.812-.084q-1.064-.112-1.736-.63-.672-.532-.672-1.484 0-.714.364-1.218a2.25 2.25 0 0 1 1.008-.784q.645-.28 1.484-.28 1.26 0 2.044.56.785.56.812 1.666h-1.26q-.013-.448-.42-.756-.392-.322-1.176-.322t-1.19.322-.406.812q0 .42.28.672.295.252.952.322l.812.084q1.205.126 1.932.672.728.532.728 1.512 0 .7-.406 1.246-.392.532-1.092.84-.7.294-1.61.294m8.36.028q-.98 0-1.722-.336a4 4 0 0 1-1.26-.882 4 4 0 0 1-.77-1.246 4 4 0 0 1-.252-1.4v-.252q0-.714.266-1.4.267-.7.784-1.246a3.7 3.7 0 0 1 1.26-.882q.743-.336 1.694-.336.953 0 1.694.336a3.7 3.7 0 0 1 1.26.882q.519.546.784 1.246.266.686.266 1.4v.252q0 .714-.266 1.4a3.7 3.7 0 0 1-.77 1.246 3.8 3.8 0 0 1-1.246.882q-.741.336-1.722.336m0-1.204q.84 0 1.428-.364.603-.378.91-1.008.322-.63.322-1.414 0-.798-.322-1.428a2.43 2.43 0 0 0-.924-.994q-.588-.364-1.414-.364-.811 0-1.414.364a2.44 2.44 0 0 0-.924.994q-.322.63-.322 1.428 0 .784.308 1.414.322.63.91 1.008.602.364 1.442.364m9.083 1.204q-.966 0-1.68-.336a3.4 3.4 0 0 1-1.162-.896 4.2 4.2 0 0 1-.7-1.26 4.4 4.4 0 0 1-.224-1.372v-.252q0-.714.224-1.4.238-.686.7-1.232.477-.56 1.176-.896.7-.336 1.638-.336.939 0 1.68.35a2.93 2.93 0 0 1 1.204.994q.462.63.518 1.498h-1.288a1.8 1.8 0 0 0-.644-1.162q-.546-.476-1.47-.476-.798 0-1.33.364a2.23 2.23 0 0 0-.798.994q-.266.63-.266 1.428 0 .77.266 1.414.267.63.798 1.008.546.364 1.358.364.63 0 1.092-.224t.742-.602.336-.854h1.288q-.041.882-.518 1.526a3.1 3.1 0 0 1-1.232 1.008q-.756.35-1.708.35m5.508-.252v-7.476h1.344V151zm-1.148-6.412v-1.064h2.492v1.064zm1.526-2.268q-.447 0-.672-.238a.88.88 0 0 1-.21-.602q0-.364.21-.602.225-.238.672-.238t.658.238a.84.84 0 0 1 .224.602.84.84 0 0 1-.224.602q-.21.238-.658.238m7.947 8.68v-2.24h-.224v-2.59q0-.77-.406-1.162-.392-.392-1.162-.392-.434 0-.896.014l-.882.028q-.42.013-.728.042v-1.176q.308-.028.644-.042.35-.028.714-.028.364-.014.7-.014 1.148 0 1.876.28.728.266 1.078.882t.35 1.666V151zm-2.45.196q-.84 0-1.456-.28a2.2 2.2 0 0 1-.938-.84q-.322-.546-.322-1.316 0-.798.35-1.33.364-.532 1.05-.798.686-.28 1.652-.28h2.03v1.008h-2.086q-.812 0-1.246.392a1.3 1.3 0 0 0-.434 1.008q0 .616.434.994t1.246.378q.476 0 .91-.168.433-.182.714-.588.294-.42.322-1.148l.364.532q-.07.798-.392 1.344a2.03 2.03 0 0 1-.868.812q-.546.28-1.33.28m8.753-.112q-.84 0-1.456-.238a1.85 1.85 0 0 1-.938-.812q-.322-.588-.322-1.582v-7.196h1.288v7.364q0 .602.322.938.335.322.938.322h1.316v1.204zm-4.004-6.552v-1.008h5.152v1.008zm10.036 6.72q-.98 0-1.694-.336a3.3 3.3 0 0 1-1.162-.882 3.9 3.9 0 0 1-.672-1.246 4.8 4.8 0 0 1-.21-1.4v-.252q0-.728.21-1.414.224-.686.672-1.232a3.14 3.14 0 0 1 1.134-.882q.7-.336 1.638-.336 1.218 0 2.002.532.798.518 1.176 1.344a4.1 4.1 0 0 1 .392 1.764v.602h-6.636v-1.008h5.656l-.308.546q0-.798-.252-1.372a1.97 1.97 0 0 0-.756-.91q-.504-.322-1.274-.322-.798 0-1.33.364a2.26 2.26 0 0 0-.784.994q-.252.63-.252 1.456 0 .798.252 1.442.266.63.812 1.008.546.364 1.386.364.882 0 1.428-.392.56-.392.672-.91h1.26a3 3 0 0 1-.616 1.33 3 3 0 0 1-1.162.854 4.1 4.1 0 0 1-1.582.294m8.376 0a3.6 3.6 0 0 1-1.47-.294 3.6 3.6 0 0 1-1.176-.826 4 4 0 0 1-.77-1.232 4.2 4.2 0 0 1-.266-1.512v-.252q0-.798.266-1.498.267-.7.742-1.232.49-.532 1.148-.826a3.5 3.5 0 0 1 1.484-.308q.855 0 1.554.364.7.35 1.148 1.106.449.756.504 1.96l-.56-.896v-5.026h1.344V151h-1.064v-3.318h.392q-.055 1.274-.532 2.072-.475.784-1.204 1.148-.714.35-1.54.35m.182-1.176q.687 0 1.246-.308.56-.308.896-.882.336-.588.336-1.372v-.644q0-.77-.35-1.302a2.16 2.16 0 0 0-.91-.826 2.6 2.6 0 0 0-1.232-.294q-.741 0-1.316.35-.56.35-.882.98-.308.63-.308 1.484t.322 1.498q.323.63.896.98a2.53 2.53 0 0 0 1.302.336m11.438.924 1.512-7.224h1.82L220.53 151h-1.148l-1.764-7.196h.448L216.54 151zm-.686 0v-1.064h1.554V151zm-.308 0-2.114-7.476h1.288l2.058 7.476zm5.222 0v-1.064h1.554V151zm.63 0 1.792-7.476h1.218L221.468 151zm5.049 0v-7.476h1.344V151zm-1.148-6.412v-1.064h2.492v1.064zm1.526-2.268q-.447 0-.672-.238a.88.88 0 0 1-.21-.602q0-.364.21-.602.225-.238.672-.238t.658.238a.84.84 0 0 1 .224.602.84.84 0 0 1-.224.602q-.21.238-.658.238m6.337 8.764q-.84 0-1.456-.238a1.85 1.85 0 0 1-.938-.812q-.322-.588-.322-1.582v-7.196h1.288v7.364q0 .602.322.938.336.322.938.322h1.316v1.204zm-4.004-6.552v-1.008h5.152v1.008zm6.913 6.468v-10.22h1.344v6.104h-.336q0-1.106.28-1.904.294-.812.896-1.246t1.54-.434h.056q1.344 0 2.03.896.686.882.686 2.534V151h-1.344v-4.55q0-.91-.518-1.414-.504-.504-1.316-.504-.896 0-1.442.602-.532.588-.532 1.554V151zm12.057 0v-7.854q0-1.246.658-1.834.657-.588 1.932-.588h.924v1.12h-1.148q-.519 0-.798.294-.28.28-.28.784V151zm-1.036-6.384v-1.008h4.69v1.008zm5.977 6.384v-7.476h1.064v3.08h-.056q0-1.638.714-2.394.728-.77 2.17-.77h.252v1.204h-.476q-1.12 0-1.722.602-.602.588-.602 1.708V151zm10.097 0v-2.24h-.224v-2.59q0-.77-.406-1.162-.393-.392-1.162-.392-.435 0-.896.014l-.882.028q-.42.013-.728.042v-1.176q.308-.028.644-.042.35-.028.714-.028.364-.014.7-.014 1.147 0 1.876.28.727.266 1.078.882.35.616.35 1.666V151zm-2.45.196q-.84 0-1.456-.28a2.2 2.2 0 0 1-.938-.84q-.322-.546-.322-1.316 0-.798.35-1.33.363-.532 1.05-.798.686-.28 1.652-.28h2.03v1.008h-2.086q-.813 0-1.246.392-.435.392-.434 1.008 0 .616.434.994.433.378 1.246.378.475 0 .91-.168.434-.182.714-.588.294-.42.322-1.148l.364.532q-.07.798-.392 1.344a2.03 2.03 0 0 1-.868.812q-.546.28-1.33.28m8.431.028q-1.33 0-2.044-.868t-.714-2.506v-4.34h1.344v4.606q0 .882.476 1.386.475.49 1.288.49.84 0 1.372-.532.531-.546.532-1.484v-4.466h1.344V151h-1.064v-3.206h.168q0 1.106-.294 1.876-.294.756-.882 1.162-.574.392-1.47.392zm9.183.028a3.6 3.6 0 0 1-1.47-.294 3.6 3.6 0 0 1-1.176-.826 4 4 0 0 1-.77-1.232 4.2 4.2 0 0 1-.266-1.512v-.252q0-.798.266-1.498.265-.7.742-1.232.49-.532 1.148-.826a3.5 3.5 0 0 1 1.484-.308q.854 0 1.554.364.7.35 1.148 1.106t.504 1.96l-.56-.896v-5.026h1.344V151h-1.064v-3.318h.392q-.057 1.274-.532 2.072-.477.784-1.204 1.148-.715.35-1.54.35m.182-1.176q.685 0 1.246-.308a2.3 2.3 0 0 0 .896-.882q.336-.588.336-1.372v-.644q0-.77-.35-1.302a2.17 2.17 0 0 0-.91-.826 2.6 2.6 0 0 0-1.232-.294q-.743 0-1.316.35a2.4 2.4 0 0 0-.882.98q-.308.63-.308 1.484t.322 1.498q.321.63.896.98.573.336 1.302.336m8.798 1.148q-1.33 0-2.044-.868t-.714-2.506v-4.34h1.344v4.606q0 .882.476 1.386.476.49 1.288.49.84 0 1.372-.532.532-.546.532-1.484v-4.466h1.344V151h-1.064v-3.206h.168q0 1.106-.294 1.876-.294.756-.882 1.162-.574.392-1.47.392zm6.145-.224v-10.22h1.344V151zm-1.036-9.156v-1.064h2.38v1.064zm7.996 9.408q-.98 0-1.694-.336a3.3 3.3 0 0 1-1.162-.882 3.9 3.9 0 0 1-.672-1.246 4.8 4.8 0 0 1-.21-1.4v-.252q0-.728.21-1.414.224-.686.672-1.232a3.1 3.1 0 0 1 1.134-.882q.699-.336 1.638-.336 1.218 0 2.002.532.798.518 1.176 1.344a4.1 4.1 0 0 1 .392 1.764v.602h-6.636v-1.008h5.656l-.308.546q0-.798-.252-1.372a1.97 1.97 0 0 0-.756-.91q-.504-.322-1.274-.322-.798 0-1.33.364a2.25 2.25 0 0 0-.784.994q-.252.63-.252 1.456 0 .798.252 1.442.266.63.812 1.008.546.364 1.386.364.882 0 1.428-.392.56-.392.672-.91h1.26a3 3 0 0 1-.616 1.33 3 3 0 0 1-1.162.854 4.1 4.1 0 0 1-1.582.294m5.254-.252v-7.476h1.064v3.206h-.168q0-1.106.294-1.862.307-.77.924-1.162.616-.406 1.554-.406h.056q1.414 0 2.086.882.686.882.686 2.548V151h-1.344v-4.55q0-.868-.49-1.386-.49-.532-1.344-.532-.882 0-1.428.546t-.546 1.456V151zm11.727.084q-.84 0-1.456-.238a1.85 1.85 0 0 1-.938-.812q-.322-.588-.322-1.582v-7.196h1.288v7.364q0 .602.322.938.336.322.938.322h1.316v1.204zm-4.004-6.552v-1.008h5.152v1.008zM33.81 169v-2.24h-.224v-2.59q0-.77-.406-1.162-.392-.392-1.162-.392-.435 0-.896.014l-.882.028q-.42.013-.728.042v-1.176q.308-.028.644-.042.35-.028.714-.028.364-.014.7-.014 1.147 0 1.876.28.728.266 1.078.882t.35 1.666V169zm-2.45.196q-.84 0-1.456-.28a2.2 2.2 0 0 1-.938-.84q-.322-.546-.322-1.316 0-.798.35-1.33.364-.532 1.05-.798.686-.28 1.652-.28h2.03v1.008H31.64q-.812 0-1.246.392t-.434 1.008.434.994q.435.378 1.246.378.475 0 .91-.168a1.6 1.6 0 0 0 .714-.588q.294-.42.322-1.148l.364.532q-.07.798-.392 1.344a2.03 2.03 0 0 1-.868.812q-.546.28-1.33.28m9.047.056q-.966 0-1.68-.336a3.4 3.4 0 0 1-1.162-.896 4.2 4.2 0 0 1-.7-1.26 4.4 4.4 0 0 1-.224-1.372v-.252q0-.714.224-1.4a3.8 3.8 0 0 1 .7-1.232q.476-.56 1.176-.896.699-.336 1.638-.336.937 0 1.68.35.756.35 1.204.994.462.63.518 1.498h-1.288a1.8 1.8 0 0 0-.644-1.162q-.546-.476-1.47-.476-.799 0-1.33.364-.532.364-.798.994t-.266 1.428q0 .77.266 1.414.265.63.798 1.008.545.364 1.358.364.63 0 1.092-.224t.742-.602.336-.854h1.288q-.041.882-.518 1.526a3.13 3.13 0 0 1-1.232 1.008q-.757.35-1.708.35m8.056-.168q-.84 0-1.456-.238a1.85 1.85 0 0 1-.938-.812q-.322-.588-.322-1.582v-7.196h1.288v7.364q0 .602.322.938.336.322.938.322h1.316v1.204zm-4.004-6.552v-1.008h5.152v1.008zM51.736 169v-7.476h1.344V169zm-1.148-6.412v-1.064h2.492v1.064zm1.526-2.268q-.449 0-.672-.238a.88.88 0 0 1-.21-.602q0-.364.21-.602.224-.238.672-.238t.658.238q.224.238.224.602a.84.84 0 0 1-.224.602q-.21.238-.658.238m5.02 8.68-2.547-7.476h1.4L58.478 169zm.337 0v-1.064h1.624V169zm.644 0 2.17-7.476H61.6L59.388 169zm5.468 0v-7.476h1.344V169zm-1.148-6.412v-1.064h2.492v1.064zm1.526-2.268q-.449 0-.672-.238a.88.88 0 0 1-.21-.602q0-.364.21-.602.224-.238.672-.238t.658.238q.225.238.224.602a.84.84 0 0 1-.224.602q-.21.238-.658.238m6.337 8.764q-.84 0-1.457-.238a1.85 1.85 0 0 1-.937-.812q-.322-.588-.322-1.582v-7.196h1.288v7.364q0 .602.322.938.335.322.938.322h1.316v1.204zm-4.005-6.552v-1.008h5.152v1.008zm6.41 9.38v-1.204h1.077q.477 0 .798-.126.336-.112.546-.392.225-.28.364-.742l2.352-7.924h1.316l-2.492 8.274q-.224.742-.63 1.204-.406.476-.994.686-.573.224-1.344.224zm2.281-3.08v-1.12h1.624v1.12zm-.14 0-2.674-7.308h1.372l2.562 7.308zm5.08.168v-1.708h1.623V169zm7.031 0v-10.22h1.372V169zm1.092-4.55v-1.232l4.382-.014v1.232zm0-4.438v-1.232h4.62v1.232zm9.713 9.24q-.98 0-1.722-.336a4 4 0 0 1-1.26-.882 4 4 0 0 1-.77-1.246 4 4 0 0 1-.252-1.4v-.252q0-.714.266-1.4.267-.7.784-1.246a3.7 3.7 0 0 1 1.26-.882q.743-.336 1.694-.336.953 0 1.694.336.742.322 1.26.882.519.546.784 1.246.267.686.266 1.4v.252q0 .714-.266 1.4a3.7 3.7 0 0 1-.77 1.246 3.8 3.8 0 0 1-1.246.882q-.741.336-1.722.336m0-1.204q.84 0 1.428-.364.603-.378.91-1.008.322-.63.322-1.414 0-.798-.322-1.428a2.43 2.43 0 0 0-.924-.994q-.588-.364-1.414-.364-.811 0-1.414.364t-.924.994-.322 1.428q0 .784.308 1.414.322.63.91 1.008.603.364 1.442.364m5.877.952v-7.476h1.064v3.08h-.056q0-1.638.714-2.394.729-.77 2.17-.77h.252v1.204h-.476q-1.119 0-1.722.602-.602.588-.602 1.708V169zm8.144 2.912v-1.204h1.078q.475 0 .798-.126.336-.112.546-.392.224-.28.364-.742l2.352-7.924h1.316l-2.492 8.274q-.224.742-.63 1.204a2.3 2.3 0 0 1-.994.686q-.575.224-1.344.224zm2.282-3.08v-1.12h1.624v1.12zm-.14 0-2.674-7.308h1.372l2.562 7.308zm9.186.42q-.981 0-1.722-.336a4 4 0 0 1-1.26-.882 4 4 0 0 1-.77-1.246 4 4 0 0 1-.252-1.4v-.252q0-.714.266-1.4.265-.7.784-1.246a3.7 3.7 0 0 1 1.26-.882q.741-.336 1.694-.336.951 0 1.694.336.741.322 1.26.882.517.546.784 1.246.266.686.266 1.4v.252q0 .714-.266 1.4a3.7 3.7 0 0 1-.77 1.246 3.8 3.8 0 0 1-1.246.882q-.743.336-1.722.336m0-1.204q.84 0 1.428-.364.601-.378.91-1.008.322-.63.322-1.414 0-.798-.322-1.428a2.44 2.44 0 0 0-.924-.994q-.588-.364-1.414-.364-.813 0-1.414.364-.603.364-.924.994t-.322 1.428q0 .784.308 1.414.322.63.91 1.008.602.364 1.442.364m8.467 1.176q-1.33 0-2.044-.868t-.714-2.506v-4.34h1.344v4.606q0 .882.476 1.386.475.49 1.288.49.84 0 1.372-.532.531-.546.532-1.484v-4.466h1.344V169h-1.064v-3.206h.168q0 1.106-.294 1.876-.294.756-.882 1.162-.575.392-1.47.392zm6.061-.224v-7.476h1.064v3.08h-.056q0-1.638.714-2.394.727-.77 2.17-.77h.252v1.204h-.476q-1.12 0-1.722.602-.602.588-.602 1.708V169zm11.097.224q-1.47 0-2.282-.63-.798-.63-.826-1.722h1.26q.029.434.434.826.42.378 1.414.378.897 0 1.372-.35.477-.364.476-.882 0-.462-.35-.714-.35-.266-1.134-.35l-.812-.084q-1.064-.112-1.736-.63-.672-.532-.672-1.484 0-.714.364-1.218a2.25 2.25 0 0 1 1.008-.784q.644-.28 1.484-.28 1.26 0 2.044.56.785.56.812 1.666h-1.26q-.013-.448-.42-.756-.391-.322-1.176-.322-.783 0-1.19.322t-.406.812q0 .42.28.672.294.252.952.322l.812.084q1.204.126 1.932.672.728.532.728 1.512 0 .7-.406 1.246-.391.532-1.092.84-.7.294-1.61.294m8.094.028q-.98 0-1.694-.336a3.3 3.3 0 0 1-1.162-.882 3.9 3.9 0 0 1-.672-1.246 4.8 4.8 0 0 1-.21-1.4v-.252q0-.728.21-1.414.224-.686.672-1.232a3.14 3.14 0 0 1 1.134-.882q.7-.336 1.638-.336 1.218 0 2.002.532.798.518 1.176 1.344a4.1 4.1 0 0 1 .392 1.764v.602h-6.636v-1.008h5.656l-.308.546q0-.798-.252-1.372a1.97 1.97 0 0 0-.756-.91q-.504-.322-1.274-.322-.798 0-1.33.364a2.26 2.26 0 0 0-.784.994q-.252.63-.252 1.456 0 .798.252 1.442.266.63.812 1.008.546.364 1.386.364.882 0 1.428-.392.56-.392.672-.91h1.26a3 3 0 0 1-.616 1.33 3 3 0 0 1-1.162.854 4.1 4.1 0 0 1-1.582.294m8.46 0q-.966 0-1.68-.336a3.4 3.4 0 0 1-1.162-.896 4.2 4.2 0 0 1-.7-1.26 4.4 4.4 0 0 1-.224-1.372v-.252q0-.714.224-1.4.238-.686.7-1.232.477-.56 1.176-.896.7-.336 1.638-.336.939 0 1.68.35a2.93 2.93 0 0 1 1.204.994q.462.63.518 1.498h-1.288a1.8 1.8 0 0 0-.644-1.162q-.546-.476-1.47-.476-.798 0-1.33.364a2.23 2.23 0 0 0-.798.994q-.266.63-.266 1.428 0 .77.266 1.414.267.63.798 1.008.546.364 1.358.364.63 0 1.092-.224t.742-.602.336-.854h1.288q-.042.882-.518 1.526a3.1 3.1 0 0 1-1.232 1.008q-.756.35-1.708.35m7.735-.028q-1.33 0-2.044-.868t-.714-2.506v-4.34h1.344v4.606q0 .882.476 1.386.475.49 1.288.49.84 0 1.372-.532.531-.546.532-1.484v-4.466h1.344V169h-1.064v-3.206h.168q0 1.106-.294 1.876-.294.756-.882 1.162-.574.392-1.47.392zm6.061-.224v-7.476h1.064v3.08h-.056q0-1.638.714-2.394.727-.77 2.17-.77h.252v1.204h-.476q-1.12 0-1.722.602-.602.588-.602 1.708V169zm5.966 0v-7.476h1.344V169zm-1.148-6.412v-1.064h2.492v1.064zm1.526-2.268q-.448 0-.672-.238a.88.88 0 0 1-.21-.602q0-.364.21-.602.224-.238.672-.238.447 0 .658.238a.85.85 0 0 1 .224.602.85.85 0 0 1-.224.602q-.21.238-.658.238m6.336 8.764q-.84 0-1.456-.238a1.85 1.85 0 0 1-.938-.812q-.321-.588-.322-1.582v-7.196h1.288v7.364q0 .602.322.938.336.322.938.322h1.316v1.204zm-4.004-6.552v-1.008h5.152v1.008zm6.409 9.38v-1.204h1.078q.477 0 .798-.126.336-.112.546-.392.225-.28.364-.742l2.352-7.924h1.316l-2.492 8.274q-.223.742-.63 1.204-.405.476-.994.686-.573.224-1.344.224zm2.282-3.08v-1.12h1.624v1.12zm-.14 0-2.674-7.308h1.372l2.562 7.308zm5.499 2.366-1.078-.406 1.302-3.612 1.106.42zm6.416.602v-10.276h1.064v3.234l-.252-.028q.07-1.204.504-1.96.448-.77 1.162-1.134a3.4 3.4 0 0 1 1.554-.364q.811 0 1.47.308.672.308 1.148.84t.728 1.232.252 1.484v.252a4.2 4.2 0 0 1-.266 1.484 3.8 3.8 0 0 1-.756 1.232q-.476.532-1.148.84a3.4 3.4 0 0 1-1.456.308 3.5 3.5 0 0 1-1.526-.35q-.728-.35-1.204-1.134-.476-.785-.546-2.058l.616 1.12v4.97zm3.794-3.724q.756 0 1.316-.35.56-.364.868-.994.308-.643.308-1.47 0-.84-.308-1.47a2.33 2.33 0 0 0-.868-.98q-.56-.364-1.316-.364-.672 0-1.246.308a2.3 2.3 0 0 0-.924.868q-.336.56-.336 1.358v.644q0 .77.35 1.316t.924.84 1.232.294m5.802.924v-10.22h1.344V169zm-1.036-9.156v-1.064h2.38v1.064zm7.996 9.408q-.98 0-1.694-.336a3.3 3.3 0 0 1-1.162-.882 4 4 0 0 1-.672-1.246 4.8 4.8 0 0 1-.21-1.4v-.252q0-.728.21-1.414.225-.686.672-1.232a3.14 3.14 0 0 1 1.134-.882q.7-.336 1.638-.336 1.219 0 2.002.532.798.518 1.176 1.344.392.826.392 1.764v.602h-6.636v-1.008h5.656l-.308.546q0-.798-.252-1.372a1.97 1.97 0 0 0-.756-.91q-.503-.322-1.274-.322-.798 0-1.33.364a2.26 2.26 0 0 0-.784.994q-.252.63-.252 1.456 0 .798.252 1.442.267.63.812 1.008.546.364 1.386.364.882 0 1.428-.392.561-.392.672-.91h1.26a2.96 2.96 0 0 1-.616 1.33 3 3 0 0 1-1.162.854q-.7.294-1.582.294m9.777-.252v-2.24h-.224v-2.59q0-.77-.406-1.162-.393-.392-1.162-.392-.434 0-.896.014l-.882.028q-.42.013-.728.042v-1.176q.308-.028.644-.042.35-.028.714-.028.363-.014.7-.014 1.147 0 1.876.28.727.266 1.078.882.35.616.35 1.666V169zm-2.45.196q-.84 0-1.456-.28a2.2 2.2 0 0 1-.938-.84q-.322-.546-.322-1.316 0-.798.35-1.33.363-.532 1.05-.798.686-.28 1.652-.28h2.03v1.008h-2.086q-.813 0-1.246.392-.435.392-.434 1.008 0 .616.434.994.433.378 1.246.378.475 0 .91-.168.433-.182.714-.588.294-.42.322-1.148l.364.532q-.07.798-.392 1.344a2.03 2.03 0 0 1-.868.812q-.547.28-1.33.28m8.29.028q-1.47 0-2.282-.63-.798-.63-.826-1.722h1.26q.029.434.434.826.42.378 1.414.378.897 0 1.372-.35.477-.364.476-.882 0-.462-.35-.714-.35-.266-1.134-.35l-.812-.084q-1.064-.112-1.736-.63-.672-.532-.672-1.484 0-.714.364-1.218a2.25 2.25 0 0 1 1.008-.784q.645-.28 1.484-.28 1.26 0 2.044.56.785.56.812 1.666h-1.26q-.013-.448-.42-.756-.392-.322-1.176-.322t-1.19.322-.406.812q0 .42.28.672.295.252.952.322l.812.084q1.205.126 1.932.672.728.532.728 1.512 0 .7-.406 1.246-.392.532-1.092.84-.7.294-1.61.294m8.094.028q-.98 0-1.694-.336a3.3 3.3 0 0 1-1.162-.882 3.9 3.9 0 0 1-.672-1.246 4.8 4.8 0 0 1-.21-1.4v-.252q0-.728.21-1.414.223-.686.672-1.232a3.14 3.14 0 0 1 1.134-.882q.7-.336 1.638-.336 1.218 0 2.002.532.798.518 1.176 1.344a4.1 4.1 0 0 1 .392 1.764v.602h-6.636v-1.008h5.656l-.308.546q0-.798-.252-1.372a1.97 1.97 0 0 0-.756-.91q-.504-.322-1.274-.322-.798 0-1.33.364a2.26 2.26 0 0 0-.784.994q-.252.63-.252 1.456 0 .798.252 1.442.266.63.812 1.008.546.364 1.386.364.882 0 1.428-.392.56-.392.672-.91h1.26a3 3 0 0 1-.616 1.33 3 3 0 0 1-1.162.854 4.1 4.1 0 0 1-1.582.294m8.3-.252v-7.476h1.064v3.08h-.056q0-1.638.714-2.394.728-.77 2.17-.77h.252v1.204h-.476q-1.12 0-1.722.602-.602.588-.602 1.708V169zm8.698.252q-.98 0-1.694-.336a3.3 3.3 0 0 1-1.162-.882 3.9 3.9 0 0 1-.672-1.246 4.8 4.8 0 0 1-.21-1.4v-.252q0-.728.21-1.414.224-.686.672-1.232a3.14 3.14 0 0 1 1.134-.882q.7-.336 1.638-.336 1.218 0 2.002.532.798.518 1.176 1.344a4.1 4.1 0 0 1 .392 1.764v.602h-6.636v-1.008h5.656l-.308.546q0-.798-.252-1.372a1.97 1.97 0 0 0-.756-.91q-.504-.322-1.274-.322-.798 0-1.33.364a2.26 2.26 0 0 0-.784.994q-.252.63-.252 1.456 0 .798.252 1.442.266.63.812 1.008.546.364 1.386.364.882 0 1.428-.392.56-.392.672-.91h1.26a3 3 0 0 1-.616 1.33 3 3 0 0 1-1.162.854 4.1 4.1 0 0 1-1.582.294m5.45-.252v-7.854q0-1.246.658-1.834.659-.588 1.932-.588h.924v1.12h-1.148q-.518 0-.798.294-.28.28-.28.784V169zm-1.036-6.384v-1.008h4.69v1.008zm5.978 6.384v-7.476h1.064v3.08h-.056q0-1.638.714-2.394.727-.77 2.17-.77h.252v1.204h-.476q-1.12 0-1.722.602-.603.588-.602 1.708V169zm10.097 0v-2.24h-.224v-2.59q0-.77-.406-1.162-.393-.392-1.162-.392-.434 0-.896.014l-.882.028q-.42.013-.728.042v-1.176q.308-.028.644-.042.35-.028.714-.028.363-.014.7-.014 1.147 0 1.876.28.727.266 1.078.882.35.616.35 1.666V169zm-2.45.196q-.84 0-1.456-.28a2.2 2.2 0 0 1-.938-.84q-.322-.546-.322-1.316 0-.798.35-1.33.363-.532 1.05-.798.686-.28 1.652-.28h2.03v1.008h-2.086q-.813 0-1.246.392-.435.392-.434 1.008 0 .616.434.994.433.378 1.246.378.475 0 .91-.168.433-.182.714-.588.294-.42.322-1.148l.364.532q-.07.798-.392 1.344a2.03 2.03 0 0 1-.868.812q-.547.28-1.33.28m6.204-.196v-7.476h1.344V169zm-1.148-6.412v-1.064h2.492v1.064zm1.526-2.268q-.447 0-.672-.238a.88.88 0 0 1-.21-.602q0-.364.21-.602.225-.238.672-.238t.658.238a.84.84 0 0 1 .224.602.84.84 0 0 1-.224.602q-.21.238-.658.238m3.425 8.68v-7.476h1.064v3.206h-.168q0-1.106.294-1.862.307-.77.924-1.162.617-.406 1.554-.406h.056q1.414 0 2.086.882.686.882.686 2.548V169h-1.344v-4.55q0-.868-.49-1.386-.49-.532-1.344-.532-.882 0-1.428.546t-.546 1.456V169zm12.057 0v-7.854q0-1.246.658-1.834.657-.588 1.932-.588h.924v1.12h-1.148q-.519 0-.798.294-.28.28-.28.784V169zm-1.036-6.384v-1.008h4.69v1.008zm5.977 6.384v-7.476h1.064v3.08h-.056q0-1.638.714-2.394.728-.77 2.17-.77h.252v1.204h-.476q-1.12 0-1.722.602-.602.588-.602 1.708V169zm8.964.252q-.98 0-1.722-.336a4 4 0 0 1-1.26-.882 4 4 0 0 1-.77-1.246 4 4 0 0 1-.252-1.4v-.252q0-.714.266-1.4.266-.7.784-1.246a3.7 3.7 0 0 1 1.26-.882q.742-.336 1.694-.336t1.694.336a3.7 3.7 0 0 1 1.26.882q.518.546.784 1.246.266.686.266 1.4v.252q0 .714-.266 1.4a3.7 3.7 0 0 1-.77 1.246 3.8 3.8 0 0 1-1.246.882q-.743.336-1.722.336m0-1.204q.84 0 1.428-.364a2.43 2.43 0 0 0 .91-1.008q.322-.63.322-1.414 0-.798-.322-1.428a2.44 2.44 0 0 0-.924-.994q-.588-.364-1.414-.364-.812 0-1.414.364a2.44 2.44 0 0 0-.924.994q-.322.63-.322 1.428 0 .784.308 1.414.322.63.91 1.008.602.364 1.442.364m5.877.952v-7.476h1.064v3.206h-.168q0-1.092.28-1.848.294-.77.868-1.176t1.456-.406h.056q.882 0 1.456.406.588.406.868 1.176.28.756.28 1.848h-.392q0-1.092.294-1.848.294-.77.868-1.176.588-.406 1.47-.406h.056q.882 0 1.47.406t.868 1.176q.294.756.294 1.848V169h-1.344v-4.564q0-.91-.448-1.4-.448-.504-1.246-.504-.826 0-1.33.532-.504.518-.504 1.456V169h-1.344v-4.564q0-.91-.448-1.4-.448-.504-1.246-.504-.826 0-1.33.532-.504.518-.504 1.456V169zM31.738 187.224q-1.47 0-2.282-.63-.798-.63-.826-1.722h1.26q.028.434.434.826.42.378 1.414.378.896 0 1.372-.35.476-.364.476-.882 0-.462-.35-.714-.35-.266-1.134-.35l-.812-.084q-1.065-.113-1.736-.63-.672-.532-.672-1.484 0-.714.364-1.218a2.24 2.24 0 0 1 1.008-.784q.645-.28 1.484-.28 1.26 0 2.044.56t.812 1.666h-1.26q-.015-.448-.42-.756-.391-.322-1.176-.322t-1.19.322-.406.812q0 .42.28.672.294.252.952.322l.812.084q1.204.126 1.932.672.728.532.728 1.512 0 .7-.406 1.246-.392.532-1.092.84-.7.294-1.61.294m8.094.028q-.98 0-1.694-.336a3.3 3.3 0 0 1-1.162-.882 3.9 3.9 0 0 1-.672-1.246 4.8 4.8 0 0 1-.21-1.4v-.252q0-.728.21-1.414a3.8 3.8 0 0 1 .672-1.232 3.14 3.14 0 0 1 1.134-.882q.7-.336 1.638-.336 1.218 0 2.002.532.798.518 1.176 1.344.392.826.392 1.764v.602h-6.636v-1.008h5.656l-.308.546q0-.798-.252-1.372a1.97 1.97 0 0 0-.756-.91q-.503-.322-1.274-.322-.798 0-1.33.364a2.26 2.26 0 0 0-.784.994q-.252.63-.252 1.456 0 .798.252 1.442.266.63.812 1.008.546.364 1.386.364.882 0 1.428-.392.56-.392.672-.91h1.26a2.97 2.97 0 0 1-.616 1.33 3 3 0 0 1-1.162.854q-.7.294-1.582.294m5.254-.252v-7.476h1.064v3.206h-.168q0-1.106.294-1.862.308-.77.924-1.162.616-.406 1.554-.406h.056q1.414 0 2.086.882.686.882.686 2.548V187h-1.344v-4.55q0-.868-.49-1.386-.489-.532-1.344-.532-.882 0-1.428.546t-.546 1.456V187zm11.937.252a3.6 3.6 0 0 1-1.47-.294 3.6 3.6 0 0 1-1.176-.826 4 4 0 0 1-.77-1.232 4.2 4.2 0 0 1-.266-1.512v-.252q0-.798.266-1.498.267-.7.742-1.232.49-.532 1.148-.826a3.5 3.5 0 0 1 1.484-.308q.854 0 1.554.364.7.35 1.148 1.106.449.756.504 1.96l-.56-.896v-5.026h1.344V187h-1.064v-3.318h.392q-.056 1.274-.532 2.072-.476.784-1.204 1.148-.714.35-1.54.35m.182-1.176q.687 0 1.246-.308.56-.308.896-.882.336-.588.336-1.372v-.644q0-.77-.35-1.302a2.16 2.16 0 0 0-.91-.826 2.6 2.6 0 0 0-1.232-.294 2.5 2.5 0 0 0-1.316.35 2.43 2.43 0 0 0-.882.98q-.308.63-.308 1.484t.322 1.498q.323.63.896.98a2.53 2.53 0 0 0 1.302.336m6.573.924v-7.476h1.343V187zm-1.148-6.412v-1.064h2.491v1.064zm1.526-2.268q-.449 0-.673-.238a.88.88 0 0 1-.21-.602q0-.364.21-.602.225-.238.673-.238.447 0 .657.238.225.238.224.602a.84.84 0 0 1-.224.602q-.21.238-.657.238M67.58 187v-7.476h1.064v3.206h-.168q0-1.106.294-1.862.309-.77.924-1.162.616-.406 1.554-.406h.056q1.414 0 2.086.882.686.882.686 2.548V187h-1.344v-4.55q0-.868-.49-1.386-.49-.532-1.344-.532-.882 0-1.428.546t-.546 1.456V187zm11.643 2.912q-.517 0-1.05-.042a15 15 0 0 1-.994-.112v-1.134a17 17 0 0 0 1.05.112q.561.056 1.05.056 1.023 0 1.624-.28.616-.266.882-.854.28-.574.28-1.484v-1.428l.448-1.064q-.042 1.134-.476 1.89-.434.742-1.134 1.12a3.2 3.2 0 0 1-1.526.364 3.5 3.5 0 0 1-1.442-.294 3.5 3.5 0 0 1-1.12-.84 4.1 4.1 0 0 1-.728-1.218 4.3 4.3 0 0 1-.252-1.47v-.252q0-.784.266-1.456.267-.686.742-1.19a3.3 3.3 0 0 1 1.134-.784q.672-.28 1.47-.28.939 0 1.652.406.714.392 1.12 1.162.42.756.462 1.862l-.392.014v-3.192h1.064v6.594q0 1.344-.42 2.17-.406.84-1.316 1.232-.895.392-2.394.392m.406-4.088q.672 0 1.218-.294.561-.294.882-.84.336-.56.336-1.33v-.644q0-.756-.35-1.274a2.17 2.17 0 0 0-.882-.784 2.7 2.7 0 0 0-1.19-.266q-.727 0-1.288.336a2.26 2.26 0 0 0-.868.952q-.308.602-.308 1.428t.308 1.442q.322.616.868.952.56.322 1.274.322m10.407 1.232v-1.26h2.548q.924 0 1.638-.294a3.6 3.6 0 0 0 1.232-.84q.518-.532.784-1.246t.266-1.54q0-.868-.266-1.568a3.4 3.4 0 0 0-.784-1.232 3.3 3.3 0 0 0-1.232-.812q-.714-.28-1.638-.28h-2.548v-1.26h2.408q1.386 0 2.408.434 1.022.42 1.694 1.148a4.7 4.7 0 0 1 1.022 1.61q.336.882.336 1.806v.308q0 .896-.336 1.792a4.8 4.8 0 0 1-1.022 1.624q-.672.728-1.694 1.176-1.022.434-2.408.434zm-1.092 0v-10.332h1.372v10.332zm15.512.196q-1.371 0-2.366-.49a4.8 4.8 0 0 1-1.638-1.288 5.8 5.8 0 0 1-.966-1.708 5.5 5.5 0 0 1-.308-1.75v-.308q0-.91.322-1.834a5.1 5.1 0 0 1 .98-1.68 4.8 4.8 0 0 1 1.638-1.232q.994-.462 2.338-.462t2.324.462a4.8 4.8 0 0 1 1.652 1.232q.659.756.98 1.68.322.924.322 1.834v.308q0 .84-.322 1.75a5.5 5.5 0 0 1-.952 1.708 4.8 4.8 0 0 1-1.638 1.288q-.993.49-2.366.49m0-1.26q.896 0 1.61-.336a3.6 3.6 0 0 0 1.232-.91q.504-.588.77-1.316a4.6 4.6 0 0 0 .266-1.554q0-.853-.266-1.596a3.9 3.9 0 0 0-.77-1.302 3.5 3.5 0 0 0-1.232-.896q-.714-.322-1.61-.322a4 4 0 0 0-1.624.322 3.5 3.5 0 0 0-1.218.896 3.9 3.9 0 0 0-.77 1.302 4.7 4.7 0 0 0-.266 1.596q0 .811.266 1.554.266.728.77 1.316.504.574 1.218.91a3.8 3.8 0 0 0 1.624.336m9.069 1.008v-9.268h1.372V187zm-3.108-8.988v-1.232h7.588v1.232zm15.054 9.072q-.84 0-1.456-.238a1.85 1.85 0 0 1-.938-.812q-.322-.588-.322-1.582v-7.196h1.288v7.364q0 .602.322.938.336.322.938.322h1.316v1.204zm-4.004-6.552v-1.008h5.152v1.008zm10.302 6.72q-.98 0-1.722-.336a4 4 0 0 1-1.26-.882 4 4 0 0 1-.77-1.246 4 4 0 0 1-.252-1.4v-.252q0-.714.266-1.4.267-.7.784-1.246a3.7 3.7 0 0 1 1.26-.882q.743-.336 1.694-.336.953 0 1.694.336a3.7 3.7 0 0 1 1.26.882q.519.546.784 1.246.266.686.266 1.4v.252q0 .714-.266 1.4a3.7 3.7 0 0 1-.77 1.246 3.8 3.8 0 0 1-1.246.882q-.741.336-1.722.336m0-1.204q.84 0 1.428-.364.603-.378.91-1.008.322-.63.322-1.414 0-.798-.322-1.428a2.43 2.43 0 0 0-.924-.994q-.588-.364-1.414-.364-.811 0-1.414.364a2.44 2.44 0 0 0-.924.994q-.322.63-.322 1.428 0 .784.308 1.414.322.63.91 1.008.602.364 1.442.364m11.835 1.036q-.84 0-1.456-.238a1.85 1.85 0 0 1-.938-.812q-.322-.588-.322-1.582v-7.196h1.288v7.364q0 .602.322.938.336.322.938.322h1.316v1.204zm-4.004-6.552v-1.008h5.152v1.008zm6.913 6.468v-10.22h1.344v6.104h-.336q0-1.106.28-1.904.294-.812.896-1.246t1.54-.434h.056q1.344 0 2.03.896.686.882.686 2.534V187h-1.344v-4.55q0-.91-.518-1.414-.504-.504-1.316-.504-.896 0-1.442.602-.532.588-.532 1.554V187zm9.179 0v-7.476h1.344V187zm-1.148-6.412v-1.064h2.492v1.064zm1.526-2.268q-.449 0-.672-.238a.88.88 0 0 1-.21-.602q0-.364.21-.602.223-.238.672-.238.448 0 .658.238a.85.85 0 0 1 .224.602.85.85 0 0 1-.224.602q-.21.238-.658.238m5.875 8.904q-1.47 0-2.282-.63-.798-.63-.826-1.722h1.26q.027.434.434.826.42.378 1.414.378.895 0 1.372-.35.476-.364.476-.882 0-.462-.35-.714-.351-.266-1.134-.35l-.812-.084q-1.065-.113-1.736-.63-.672-.532-.672-1.484 0-.714.364-1.218a2.24 2.24 0 0 1 1.008-.784q.644-.28 1.484-.28 1.26 0 2.044.56.783.56.812 1.666h-1.26q-.015-.448-.42-.756-.393-.322-1.176-.322-.785 0-1.19.322-.406.322-.406.812 0 .42.28.672.294.252.952.322l.812.084q1.203.126 1.932.672.728.532.728 1.512 0 .7-.406 1.246-.393.532-1.092.84-.7.294-1.61.294m12.483-.224v-2.24h-.224v-2.59q0-.77-.406-1.162-.392-.392-1.162-.392-.434 0-.896.014l-.882.028q-.42.013-.728.042v-1.176q.308-.028.644-.042.35-.028.714-.028.364-.014.7-.014 1.148 0 1.876.28.728.266 1.078.882t.35 1.666V187zm-2.45.196q-.84 0-1.456-.28a2.2 2.2 0 0 1-.938-.84q-.322-.546-.322-1.316 0-.798.35-1.33.364-.532 1.05-.798.686-.28 1.652-.28h2.03v1.008h-2.086q-.812 0-1.246.392a1.3 1.3 0 0 0-.434 1.008q0 .616.434.994t1.246.378q.476 0 .91-.168.433-.181.714-.588.294-.42.322-1.148l.364.532q-.07.798-.392 1.344a2.03 2.03 0 0 1-.868.812q-.546.28-1.33.28m9.047.056q-.966 0-1.68-.336a3.4 3.4 0 0 1-1.162-.896 4.2 4.2 0 0 1-.7-1.26 4.4 4.4 0 0 1-.224-1.372v-.252q0-.714.224-1.4.238-.686.7-1.232a3.5 3.5 0 0 1 1.176-.896q.699-.336 1.638-.336.938 0 1.68.35.756.35 1.204.994.462.63.518 1.498h-1.288a1.8 1.8 0 0 0-.644-1.162q-.546-.476-1.47-.476-.798 0-1.33.364a2.2 2.2 0 0 0-.798.994q-.267.63-.266 1.428 0 .77.266 1.414.265.63.798 1.008.546.364 1.358.364.63 0 1.092-.224t.742-.602q.279-.378.336-.854h1.288q-.042.882-.518 1.526a3.14 3.14 0 0 1-1.232 1.008q-.757.35-1.708.35m8.35 0q-.966 0-1.68-.336a3.4 3.4 0 0 1-1.162-.896 4.2 4.2 0 0 1-.7-1.26 4.4 4.4 0 0 1-.224-1.372v-.252q0-.714.224-1.4.238-.686.7-1.232a3.5 3.5 0 0 1 1.176-.896q.7-.336 1.638-.336t1.68.35q.756.35 1.204.994.462.63.518 1.498h-1.288a1.8 1.8 0 0 0-.644-1.162q-.546-.476-1.47-.476-.798 0-1.33.364a2.2 2.2 0 0 0-.798.994q-.266.63-.266 1.428 0 .77.266 1.414.266.63.798 1.008.546.364 1.358.364.63 0 1.092-.224t.742-.602.336-.854h1.288q-.042.882-.518 1.526a3.14 3.14 0 0 1-1.232 1.008q-.756.35-1.708.35m8.588 0q-.98 0-1.722-.336a4 4 0 0 1-1.26-.882 4 4 0 0 1-.77-1.246 4 4 0 0 1-.252-1.4v-.252q0-.714.266-1.4.267-.7.784-1.246a3.7 3.7 0 0 1 1.26-.882q.743-.336 1.694-.336.953 0 1.694.336a3.7 3.7 0 0 1 1.26.882q.519.546.784 1.246.266.686.266 1.4v.252q0 .714-.266 1.4a3.7 3.7 0 0 1-.77 1.246 3.8 3.8 0 0 1-1.246.882q-.741.336-1.722.336m0-1.204q.84 0 1.428-.364.603-.378.91-1.008.322-.63.322-1.414 0-.798-.322-1.428a2.43 2.43 0 0 0-.924-.994q-.588-.364-1.414-.364-.811 0-1.414.364a2.44 2.44 0 0 0-.924.994q-.322.63-.322 1.428 0 .784.308 1.414.322.63.91 1.008.602.364 1.442.364m8.467 1.176q-1.33 0-2.044-.868t-.714-2.506v-4.34h1.344v4.606q0 .882.476 1.386.476.49 1.288.49.84 0 1.372-.532.532-.546.532-1.484v-4.466h1.344V187h-1.064v-3.206h.168q0 1.106-.294 1.876-.294.756-.882 1.162-.575.392-1.47.392zm6.061-.224v-7.476h1.064v3.206h-.168q0-1.106.294-1.862.308-.77.924-1.162.617-.406 1.554-.406h.056q1.414 0 2.086.882.686.882.686 2.548V187h-1.344v-4.55q0-.868-.49-1.386-.49-.532-1.344-.532-.882 0-1.428.546t-.546 1.456V187zm11.727.084q-.84 0-1.456-.238a1.85 1.85 0 0 1-.938-.812q-.321-.588-.322-1.582v-7.196h1.288v7.364q0 .602.322.938.336.322.938.322h1.316v1.204zm-4.004-6.552v-1.008h5.152v1.008zm6.647 6.468v-1.708h1.624V187z"/><path fill="#888" d="M28.984 215v-8.76h3.228l3.3 7.164h.408l-.24.216v-7.38h1.848V215h-3.252l-3.3-7.164h-.408l.24-.216V215zm14.616 0v-1.944h-.324v-2.112q0-.504-.24-.756t-.768-.252q-.264 0-.696.012t-.888.036-.828.048v-1.62a30 30 0 0 1 1.416-.084q.396-.012.744-.012 1.008 0 1.692.288.696.288 1.056.876.36.576.36 1.488V215zm-2.1.168q-.708 0-1.248-.252a1.96 1.96 0 0 1-.828-.72q-.3-.48-.3-1.14 0-.72.372-1.176.372-.468 1.044-.684.672-.228 1.548-.228h1.404v1.068h-1.416q-.504 0-.78.252-.264.24-.264.66 0 .396.264.648.276.24.78.24.324 0 .576-.108a.98.98 0 0 0 .432-.396q.168-.276.192-.768l.456.48q-.06.684-.336 1.152a1.8 1.8 0 0 1-.744.72q-.468.252-1.152.252m5.493-.168v-6.576h1.524v2.832h-.108q0-1.008.252-1.68t.756-1.008q.504-.348 1.236-.348h.084q.744 0 1.236.348.504.336.756 1.008.264.672.264 1.68h-.468q0-1.008.252-1.68.264-.672.768-1.008.504-.348 1.236-.348h.084q.744 0 1.248.348.516.336.78 1.008t.264 1.68V215h-1.92v-3.852q0-.54-.288-.876-.276-.336-.792-.336t-.816.348q-.3.336-.3.9V215h-1.932v-3.852q0-.54-.288-.876-.276-.336-.78-.336-.528 0-.828.348-.3.336-.3.9V215zm15.052.228q-.84 0-1.488-.288a3.2 3.2 0 0 1-1.068-.768 3.7 3.7 0 0 1-.647-1.092 3.7 3.7 0 0 1-.216-1.248v-.24q0-.66.216-1.26.226-.612.648-1.092a2.95 2.95 0 0 1 1.043-.756 3.45 3.45 0 0 1 1.44-.288q1.057 0 1.776.48.732.468 1.116 1.236.385.756.385 1.656v.648h-5.82v-1.092h4.655l-.623.504q0-.588-.169-1.008a1.3 1.3 0 0 0-.504-.636q-.323-.228-.816-.228-.503 0-.852.228a1.4 1.4 0 0 0-.528.672q-.18.432-.18 1.068 0 .588.169 1.032.167.432.527.672t.936.24q.528 0 .864-.204.337-.204.456-.504h1.764q-.144.66-.564 1.176a2.86 2.86 0 0 1-1.055.804q-.636.288-1.465.288m4.417-.228v-2.148h2.112V215zm0-3.996v-2.148h2.112v2.148z"/><path fill="#fff" d="M78.116 215.216q-1.092 0-1.86-.36t-1.176-.996a2.6 2.6 0 0 1-.408-1.44h1.176q0 .396.204.792.216.396.708.66.504.264 1.356.264.792 0 1.296-.228.504-.24.744-.612.24-.384.24-.828 0-.54-.468-.888-.468-.36-1.368-.444l-.972-.084q-1.164-.096-1.86-.72t-.696-1.644q0-.804.384-1.404.396-.6 1.092-.936.696-.348 1.62-.348.912 0 1.608.336t1.08.948q.396.6.396 1.44h-1.176q0-.42-.204-.792a1.5 1.5 0 0 0-.612-.612q-.42-.24-1.092-.24-.648 0-1.08.228-.42.228-.636.6-.204.36-.204.78 0 .48.372.852t1.104.432l.972.084q.9.072 1.548.384.66.3 1.008.816.36.504.36 1.212 0 .804-.432 1.428t-1.212.972-1.812.348m7.865 0q-.84 0-1.452-.288a2.8 2.8 0 0 1-.996-.756 3.4 3.4 0 0 1-.576-1.068 4 4 0 0 1-.18-1.2v-.216q0-.624.18-1.212.192-.588.576-1.056.384-.48.972-.756.6-.288 1.404-.288 1.044 0 1.716.456.684.444 1.008 1.152.336.708.336 1.512v.516h-5.688v-.864h4.848l-.264.468q0-.684-.216-1.176a1.7 1.7 0 0 0-.648-.78q-.432-.276-1.092-.276-.684 0-1.14.312-.444.312-.672.852-.216.54-.216 1.248 0 .684.216 1.236.228.54.696.864.468.312 1.188.312.756 0 1.224-.336.48-.336.576-.78h1.08q-.132.66-.528 1.14t-.996.732-1.356.252m7.228 0q-.84 0-1.452-.288a2.8 2.8 0 0 1-.996-.756 3.4 3.4 0 0 1-.576-1.068 4 4 0 0 1-.18-1.2v-.216q0-.624.18-1.212.192-.588.576-1.056.384-.48.972-.756.6-.288 1.404-.288 1.044 0 1.716.456.684.444 1.008 1.152.336.708.336 1.512v.516H90.51v-.864h4.848l-.264.468q0-.684-.216-1.176a1.7 1.7 0 0 0-.648-.78q-.432-.276-1.092-.276-.684 0-1.14.312-.444.312-.672.852-.216.54-.216 1.248 0 .684.216 1.236.228.54.696.864.468.312 1.188.312.756 0 1.224-.336.48-.336.576-.78h1.08q-.132.66-.528 1.14t-.996.732-1.356.252m7.18 0a3.1 3.1 0 0 1-1.26-.252 3.1 3.1 0 0 1-1.008-.708q-.42-.456-.66-1.056a3.6 3.6 0 0 1-.228-1.296v-.216q0-.684.228-1.284t.636-1.056q.42-.456.984-.708a3 3 0 0 1 1.272-.264q.732 0 1.332.312.6.3.984.948t.432 1.68l-.48-.768v-4.308h1.152V215h-.912v-2.844h.336q-.048 1.092-.456 1.776-.408.672-1.032.984-.612.3-1.32.3m.156-1.008q.588 0 1.068-.264a2 2 0 0 0 .768-.756q.288-.504.288-1.176v-.552q0-.66-.3-1.116a1.85 1.85 0 0 0-.78-.708 2.24 2.24 0 0 0-1.056-.252q-.636 0-1.128.3-.48.3-.756.84-.264.54-.264 1.272t.276 1.284q.276.54.768.84.492.288 1.116.288m10.944 1.008q-1.092 0-1.86-.36t-1.176-.996a2.6 2.6 0 0 1-.408-1.44h1.176q0 .396.204.792.216.396.708.66.504.264 1.356.264.792 0 1.296-.228.504-.24.744-.612.24-.384.24-.828 0-.54-.468-.888-.468-.36-1.368-.444l-.972-.084q-1.164-.096-1.86-.72t-.696-1.644q0-.804.384-1.404.396-.6 1.092-.936.696-.348 1.62-.348.912 0 1.608.336t1.08.948q.396.6.396 1.44h-1.176q0-.42-.204-.792a1.5 1.5 0 0 0-.612-.612q-.42-.24-1.092-.24-.648 0-1.08.228-.42.228-.636.6-.204.36-.204.78 0 .48.372.852t1.104.432l.972.084q.9.072 1.548.384.66.3 1.008.816.36.504.36 1.212 0 .804-.432 1.428t-1.212.972-1.812.348m7.637-.144q-.72 0-1.248-.204a1.6 1.6 0 0 1-.804-.696q-.276-.504-.276-1.356v-6.168h1.104v6.312q0 .516.276.804.288.276.804.276h1.128v1.032zm-3.432-5.616v-.864h4.416v.864zm8.603 5.76q-.84 0-1.452-.288a2.8 2.8 0 0 1-.996-.756 3.4 3.4 0 0 1-.576-1.068 4 4 0 0 1-.18-1.2v-.216q0-.624.18-1.212.192-.588.576-1.056.384-.48.972-.756.6-.288 1.404-.288 1.044 0 1.716.456.684.444 1.008 1.152.336.708.336 1.512v.516h-5.688v-.864h4.848l-.264.468q0-.684-.216-1.176a1.7 1.7 0 0 0-.648-.78q-.432-.276-1.092-.276-.684 0-1.14.312-.444.312-.672.852-.216.54-.216 1.248 0 .684.216 1.236.228.54.696.864.468.312 1.188.312.756 0 1.224-.336.48-.336.576-.78h1.08q-.132.66-.528 1.14t-.996.732-1.356.252m8.379-.216v-1.92h-.192v-2.22q0-.66-.348-.996-.336-.336-.996-.336-.372 0-.768.012l-.756.024q-.36.012-.624.036v-1.008a11 11 0 0 1 .552-.036q.3-.024.612-.024.312-.012.6-.012.984 0 1.608.24.624.228.924.756t.3 1.428V215zm-2.1.168q-.72 0-1.248-.24a1.9 1.9 0 0 1-.804-.72q-.276-.468-.276-1.128 0-.684.3-1.14.312-.456.9-.684.588-.24 1.416-.24h1.74v.864h-1.788q-.696 0-1.068.336a1.11 1.11 0 0 0-.372.864q0 .528.372.852t1.068.324q.408 0 .78-.144.372-.156.612-.504.252-.36.276-.984l.312.456q-.06.684-.336 1.152a1.74 1.74 0 0 1-.744.696q-.468.24-1.14.24m5.079-.168v-8.76h1.152V215zm-.888-7.848v-.912h2.04v.912zm6.853 8.064q-.84 0-1.452-.288a2.8 2.8 0 0 1-.996-.756 3.4 3.4 0 0 1-.576-1.068 4 4 0 0 1-.18-1.2v-.216q0-.624.18-1.212.192-.588.576-1.056.384-.48.972-.756.6-.288 1.404-.288 1.044 0 1.716.456.684.444 1.008 1.152.336.708.336 1.512v.516h-5.688v-.864h4.848l-.264.468q0-.684-.216-1.176a1.7 1.7 0 0 0-.648-.78q-.432-.276-1.092-.276-.684 0-1.14.312-.444.312-.672.852-.216.54-.216 1.248 0 .684.216 1.236.228.54.696.864.468.312 1.188.312.756 0 1.224-.336.48-.336.576-.78h1.08q-.132.66-.528 1.14t-.996.732-1.356.252m4.504-.216v-6.408h.912v2.64h-.048q0-1.404.612-2.052.624-.66 1.86-.66h.216v1.032h-.408q-.96 0-1.476.516-.516.504-.516 1.464V215z"/><path fill="#888" d="M28.984 238v-8.832h1.968V238zm5.316 0-2.568-3.768h2.16L36.58 238zm-3.876-2.808v-1.548h2.16q.432 0 .744-.168.324-.18.492-.492.18-.324.18-.744t-.18-.732a1.13 1.13 0 0 0-.492-.492 1.46 1.46 0 0 0-.744-.18h-2.16v-1.668h2.004q1.092 0 1.896.336.804.324 1.236.972t.432 1.632v.192q0 .972-.444 1.62-.432.636-1.236.96-.792.312-1.884.312zm10.352 3.036q-.84 0-1.488-.288a3.2 3.2 0 0 1-1.068-.768 3.7 3.7 0 0 1-.648-1.092 3.7 3.7 0 0 1-.216-1.248v-.24q0-.66.216-1.26.228-.612.648-1.092a2.95 2.95 0 0 1 1.044-.756 3.45 3.45 0 0 1 1.44-.288q1.056 0 1.776.48.732.468 1.116 1.236.384.756.384 1.656v.648h-5.82v-1.092h4.656l-.624.504q0-.588-.168-1.008a1.3 1.3 0 0 0-.504-.636q-.324-.228-.816-.228-.504 0-.852.228a1.4 1.4 0 0 0-.528.672q-.18.432-.18 1.068 0 .588.168 1.032.168.432.528.672t.936.24q.528 0 .864-.204t.456-.504h1.764q-.144.66-.564 1.176a2.86 2.86 0 0 1-1.056.804q-.636.288-1.464.288m8.689-.228v-1.944h-.324v-2.112q0-.504-.24-.756t-.768-.252q-.264 0-.696.012t-.888.036-.828.048v-1.62a30 30 0 0 1 1.416-.084q.396-.012.744-.012 1.008 0 1.692.288.696.288 1.056.876.36.576.36 1.488V238zm-2.1.168q-.708 0-1.248-.252a1.96 1.96 0 0 1-.828-.72q-.3-.48-.3-1.14 0-.72.372-1.176.372-.468 1.044-.684.672-.228 1.548-.228h1.404v1.068H47.94q-.504 0-.78.252-.264.24-.264.66 0 .396.264.648.276.24.78.24.324 0 .576-.108a.98.98 0 0 0 .432-.396q.168-.276.192-.768l.456.48q-.06.684-.336 1.152a1.8 1.8 0 0 1-.744.72q-.468.252-1.152.252m7.989.036q-1.404 0-2.196-.576t-.84-1.62h1.704q.048.312.372.564.336.24.996.24.504 0 .828-.168.336-.18.336-.504a.52.52 0 0 0-.252-.456q-.252-.18-.9-.252l-.516-.048q-1.188-.12-1.788-.66-.588-.54-.588-1.38 0-.696.348-1.164t.96-.708q.624-.24 1.416-.24 1.272 0 2.052.564.78.552.816 1.608h-1.704a.8.8 0 0 0-.336-.54q-.288-.228-.852-.228-.444 0-.708.168a.52.52 0 0 0-.264.456q0 .276.228.42t.744.204l.516.048q1.212.132 1.884.672t.672 1.452q0 .66-.36 1.152-.36.48-1.02.744-.66.252-1.548.252m7.616.024q-.864 0-1.536-.264a3.4 3.4 0 0 1-1.14-.744 3.2 3.2 0 0 1-.696-1.068 3.5 3.5 0 0 1-.24-1.284v-.276q0-.684.24-1.296.252-.624.72-1.092.48-.468 1.152-.732a3.9 3.9 0 0 1 1.5-.276q.852 0 1.512.276.672.264 1.14.732t.72 1.092q.252.612.252 1.296v.276q0 .672-.24 1.284-.24.6-.708 1.068-.456.468-1.128.744-.672.264-1.548.264m0-1.62q.564 0 .936-.24t.564-.672a2.2 2.2 0 0 0 .204-.96q0-.564-.204-.984a1.63 1.63 0 0 0-.588-.684q-.372-.252-.912-.252-.528 0-.912.252a1.63 1.63 0 0 0-.588.684q-.192.42-.192.984 0 .528.192.96t.576.672.924.24M68.174 238v-6.576h1.524v2.82h-.108q0-1.008.252-1.68.264-.672.792-1.008t1.284-.336h.084q1.152 0 1.752.756.612.744.612 2.268V238h-1.92v-3.864q0-.528-.312-.864t-.84-.336q-.54 0-.876.348-.324.336-.324.888V238zm7.768 0v-2.148h2.112V238zm0-3.996v-2.148h2.112v2.148z"/><path fill="#fff" d="M87.116 238.216q-1.092 0-1.86-.36t-1.176-.996a2.6 2.6 0 0 1-.408-1.44h1.176q0 .396.204.792.216.396.708.66.504.264 1.356.264.792 0 1.296-.228.504-.24.744-.612.24-.384.24-.828 0-.54-.468-.888-.468-.36-1.368-.444l-.972-.084q-1.164-.096-1.86-.72t-.696-1.644q0-.804.384-1.404.396-.6 1.092-.936.696-.348 1.62-.348.912 0 1.608.336t1.08.948q.396.6.396 1.44h-1.176q0-.42-.204-.792a1.5 1.5 0 0 0-.612-.612q-.42-.24-1.092-.24-.648 0-1.08.228-.42.228-.636.6-.204.36-.204.78 0 .48.372.852t1.104.432l.972.084q.9.072 1.548.384.66.3 1.008.816.36.504.36 1.212 0 .804-.432 1.428t-1.212.972-1.812.348m7.89 0q-.83 0-1.44-.288a2.9 2.9 0 0 1-.997-.768 3.6 3.6 0 0 1-.6-1.08 3.8 3.8 0 0 1-.192-1.176v-.216q0-.612.192-1.2.204-.588.6-1.056.408-.48 1.008-.768t1.404-.288 1.44.3q.648.3 1.032.852.396.54.444 1.284h-1.104q-.084-.6-.552-.996-.468-.408-1.26-.408-.684 0-1.14.312a1.9 1.9 0 0 0-.684.852 3.1 3.1 0 0 0-.228 1.224q0 .66.228 1.212.228.54.684.864.468.312 1.164.312.54 0 .936-.192t.636-.516.288-.732h1.104q-.036.756-.444 1.308a2.7 2.7 0 0 1-1.056.864q-.648.3-1.464.3m8.285-.216v-1.92h-.192v-2.22q0-.66-.348-.996-.336-.336-.996-.336-.372 0-.768.012l-.756.024q-.36.012-.624.036v-1.008q.264-.024.552-.036.3-.024.612-.024.312-.012.6-.012.984 0 1.608.24.624.228.924.756t.3 1.428V238zm-2.1.168q-.72 0-1.248-.24a1.9 1.9 0 0 1-.804-.72q-.276-.468-.276-1.128 0-.684.3-1.14.312-.456.9-.684.588-.24 1.416-.24h1.74v.864h-1.788q-.696 0-1.068.336a1.11 1.11 0 0 0-.372.864q0 .528.372.852t1.068.324q.408 0 .78-.144.372-.156.612-.504.252-.36.276-.984l.312.456q-.06.684-.336 1.152a1.74 1.74 0 0 1-.744.696q-.468.24-1.14.24m5.006-.168v-6.408h.912v2.748h-.144q0-.936.24-1.584.252-.66.744-1.008t1.248-.348h.048q.756 0 1.248.348.504.348.744 1.008.24.648.24 1.584h-.336q0-.936.252-1.584.252-.66.744-1.008.504-.348 1.26-.348h.048q.756 0 1.26.348t.744 1.008q.252.648.252 1.584V238h-1.152v-3.912q0-.78-.384-1.2-.384-.432-1.068-.432-.708 0-1.14.456-.432.444-.432 1.248V238h-1.152v-3.912q0-.78-.384-1.2-.384-.432-1.068-.432-.708 0-1.14.456-.432.444-.432 1.248V238z"/><path fill="#888" d="m28.156 261 2.892-8.76h3.18l3 8.76h-2.04l-2.424-7.404.624.252H31.84l.648-.252L30.124 261zm2.196-2.172.6-1.632h3.432l.612 1.632zm10.757 2.388a3.1 3.1 0 0 1-1.272-.252 3.1 3.1 0 0 1-.984-.696 3.2 3.2 0 0 1-.648-1.068 4 4 0 0 1-.216-1.32v-.276q0-.708.204-1.32a3.3 3.3 0 0 1 .612-1.068 2.8 2.8 0 0 1 .972-.72 2.9 2.9 0 0 1 1.26-.264q.792 0 1.368.348.576.336.9 1.008.324.66.36 1.632l-.504-.468v-4.512h1.932V261H43.57v-2.724h.264q-.036.936-.396 1.596-.348.66-.948 1.008-.6.336-1.38.336m.48-1.608q.444 0 .804-.192.372-.204.588-.588.228-.384.228-.924v-.444q0-.528-.228-.888a1.53 1.53 0 0 0-.6-.552 1.7 1.7 0 0 0-.804-.192q-.48 0-.864.252-.372.24-.588.672-.216.42-.216.984 0 .576.216.996t.6.648.864.228m8.198 1.608a3.1 3.1 0 0 1-1.272-.252 3.1 3.1 0 0 1-.984-.696 3.2 3.2 0 0 1-.648-1.068 4 4 0 0 1-.216-1.32v-.276q0-.708.204-1.32a3.3 3.3 0 0 1 .612-1.068 2.8 2.8 0 0 1 .972-.72 2.9 2.9 0 0 1 1.26-.264q.792 0 1.368.348.576.336.9 1.008.324.66.36 1.632l-.504-.468v-4.512h1.932V261h-1.524v-2.724h.264q-.036.936-.396 1.596-.348.66-.948 1.008-.6.336-1.38.336m.48-1.608q.444 0 .804-.192.372-.204.588-.588.228-.384.228-.924v-.444q0-.528-.228-.888a1.53 1.53 0 0 0-.6-.552 1.7 1.7 0 0 0-.804-.192q-.48 0-.864.252-.372.24-.588.672-.216.42-.216.984 0 .576.216.996t.6.648.864.228M56.064 261v-6.576h1.92V261zm-.876-5.16v-1.416h2.796v1.416zm1.62-2.064q-.54 0-.804-.276a1.05 1.05 0 0 1-.252-.72q0-.444.252-.72.264-.288.804-.288t.792.288q.264.276.264.72 0 .432-.264.72-.252.276-.792.276m6.18 7.308q-.996 0-1.608-.24a1.7 1.7 0 0 1-.9-.828q-.276-.588-.276-1.584v-5.784h1.788v5.856q0 .468.24.72.252.24.708.24h.972v1.62zm-3.78-5.256v-1.404h4.704v1.404zM65.755 261v-6.576h1.92V261zm-.876-5.16v-1.416h2.796v1.416zm1.62-2.064q-.54 0-.804-.276a1.05 1.05 0 0 1-.252-.72q0-.444.252-.72.264-.288.804-.288t.792.288q.264.276.264.72 0 .432-.264.72-.252.276-.792.276m6.396 7.452q-.864 0-1.536-.264a3.4 3.4 0 0 1-1.14-.744 3.2 3.2 0 0 1-.696-1.068 3.5 3.5 0 0 1-.24-1.284v-.276q0-.684.24-1.296.252-.624.72-1.092.48-.468 1.152-.732a3.9 3.9 0 0 1 1.5-.276q.852 0 1.512.276.672.264 1.14.732t.72 1.092q.252.612.252 1.296v.276q0 .672-.24 1.284-.24.6-.708 1.068-.456.468-1.128.744-.672.264-1.548.264m0-1.62q.564 0 .936-.24t.564-.672a2.2 2.2 0 0 0 .204-.96q0-.564-.204-.984a1.63 1.63 0 0 0-.588-.684q-.372-.252-.912-.252-.528 0-.912.252a1.63 1.63 0 0 0-.588.684q-.192.42-.192.984 0 .528.192.96t.576.672.924.24M78.099 261v-6.576h1.524v2.82h-.108q0-1.008.252-1.68.264-.672.792-1.008t1.284-.336h.084q1.152 0 1.752.756.612.744.612 2.268V261h-1.92v-3.864q0-.528-.312-.864t-.84-.336q-.54 0-.876.348-.324.336-.324.888V261zm12.04 0v-1.944h-.324v-2.112q0-.504-.24-.756t-.768-.252q-.264 0-.696.012t-.888.036-.828.048v-1.62a30 30 0 0 1 1.416-.084q.396-.012.744-.012 1.008 0 1.692.288.696.288 1.056.876.36.576.36 1.488V261zm-2.1.168q-.708 0-1.248-.252a1.96 1.96 0 0 1-.828-.72q-.3-.48-.3-1.14 0-.72.372-1.176.372-.468 1.044-.684.672-.228 1.548-.228h1.404v1.068h-1.416q-.504 0-.78.252-.264.24-.264.66 0 .396.264.648.276.24.78.24.324 0 .576-.108a.98.98 0 0 0 .432-.396q.168-.276.192-.768l.456.48q-.06.684-.336 1.152a1.8 1.8 0 0 1-.744.72q-.468.252-1.152.252m5.577-.168v-8.76h1.932V261zm-.78-7.344v-1.416h2.712v1.416zM97.257 261v-2.148h2.112V261zm0-3.996v-2.148h2.112v2.148z"/><path fill="#fff" d="M106.208 257.952v-1.032h1.956q.624 0 1.032-.24.408-.252.612-.672.216-.42.216-.936 0-.528-.216-.948-.204-.42-.612-.66t-1.032-.24h-1.956v-1.032h1.74q1.08 0 1.8.348.732.336 1.104.96t.372 1.476v.192q0 .84-.372 1.476-.372.624-1.104.972-.72.336-1.8.336zm-.936 3.048v-8.808h1.176V261zm7.388 0v-8.76h1.152v5.232h-.288q0-.948.24-1.632.252-.696.768-1.068t1.32-.372h.048q1.152 0 1.74.768.588.756.588 2.172V261h-1.152v-3.9q0-.78-.444-1.212-.432-.432-1.128-.432-.768 0-1.236.516-.456.504-.456 1.332V261zm7.868 0v-6.408h1.152V261zm-.984-5.496v-.912h2.136v.912zm1.308-1.944q-.384 0-.576-.204a.75.75 0 0 1-.18-.516q0-.312.18-.516.192-.204.576-.204t.564.204a.72.72 0 0 1 .192.516q0 .312-.192.516-.18.204-.564.204m5.035 7.632q-1.26 0-1.956-.54-.684-.54-.708-1.476h1.08q.024.372.372.708.36.324 1.212.324.768 0 1.176-.3.408-.312.408-.756a.71.71 0 0 0-.3-.612q-.3-.228-.972-.3l-.696-.072q-.912-.096-1.488-.54-.576-.456-.576-1.272 0-.612.312-1.044.312-.444.864-.672.552-.24 1.272-.24 1.08 0 1.752.48t.696 1.428h-1.08q-.012-.384-.36-.648-.336-.276-1.008-.276t-1.02.276a.85.85 0 0 0-.348.696q0 .36.24.576.252.216.816.276l.696.072q1.032.108 1.656.576.624.456.624 1.296 0 .6-.348 1.068-.336.456-.936.72-.6.252-1.38.252m4.214-.192v-8.76h1.152v5.232h-.288q0-.948.24-1.632.252-.696.768-1.068t1.32-.372h.048q1.152 0 1.74.768.588.756.588 2.172V261h-1.152v-3.9q0-.78-.444-1.212-.432-.432-1.128-.432-.768 0-1.236.516-.456.504-.456 1.332V261zm7.867 0v-6.408h1.152V261zm-.984-5.496v-.912h2.136v.912zm1.308-1.944q-.384 0-.576-.204a.75.75 0 0 1-.18-.516q0-.312.18-.516.192-.204.576-.204t.564.204a.72.72 0 0 1 .192.516q0 .312-.192.516-.18.204-.564.204m2.936 7.44v-6.408h.912v2.748h-.144q0-.948.252-1.596.264-.66.792-.996.528-.348 1.332-.348h.048q1.212 0 1.788.756.588.756.588 2.184V261h-1.152v-3.9q0-.744-.42-1.188-.42-.456-1.152-.456-.756 0-1.224.468t-.468 1.248V261zm9.98 2.496q-.444 0-.9-.036-.444-.036-.852-.096v-.972q.432.06.9.096.48.048.9.048.876 0 1.392-.24.528-.228.756-.732.24-.492.24-1.272v-1.224l.384-.912q-.036.972-.408 1.62a2.5 2.5 0 0 1-.972.96 2.75 2.75 0 0 1-1.308.312q-.672 0-1.236-.252a3 3 0 0 1-.96-.72 3.5 3.5 0 0 1-.624-1.044q-.216-.6-.216-1.26v-.216q0-.672.228-1.248a3.1 3.1 0 0 1 .636-1.02q.408-.432.972-.672.576-.24 1.26-.24.804 0 1.416.348.612.336.96.996.36.648.396 1.596l-.336.012v-2.736h.912v5.652q0 1.152-.36 1.86-.348.72-1.128 1.056-.768.336-2.052.336m.348-3.504q.576 0 1.044-.252.48-.252.756-.72.288-.48.288-1.14v-.552q0-.648-.3-1.092a1.86 1.86 0 0 0-.756-.672 2.3 2.3 0 0 0-1.02-.228q-.624 0-1.104.288t-.744.816q-.264.516-.264 1.224t.264 1.236q.276.528.744.816.48.276 1.092.276"/></svg>